solid OpenSCAD_Model
  facet normal -1 0 0
    outer loop
      vertex -34.5 -40.7 3
      vertex -34.5 -40.7 0
      vertex -34.5 -44.3 3
    endloop
  endfacet
  facet normal -1 0 0
    outer loop
      vertex -34.5 -44.3 3
      vertex -34.5 -40.7 0
      vertex -34.5 -44.3 0
    endloop
  endfacet
  facet normal 0 -1 0
    outer loop
      vertex -34.5 -44.3 3
      vertex -34.5 -44.3 0
      vertex -31.8 -44.3 0
    endloop
  endfacet
  facet normal 0 -1 0
    outer loop
      vertex -31.8 -44.3 3
      vertex -34.5 -44.3 3
      vertex -31.8 -44.3 0
    endloop
  endfacet
  facet normal 0 0 -1
    outer loop
      vertex -34.5 -44.3 0
      vertex -34.5 -40.7 0
      vertex -31.8 -44.3 0
    endloop
  endfacet
  facet normal 0 0 -1
    outer loop
      vertex -31.8 -44.3 0
      vertex -34.5 -40.7 0
      vertex -31.8 -40.7 0
    endloop
  endfacet
  facet normal 0 0 -1
    outer loop
      vertex -31.8 -40.7 0
      vertex -18.6 47.4 0
      vertex -31.8 -44.3 0
    endloop
  endfacet
  facet normal 0 0 -1
    outer loop
      vertex -31.8 -37.3 0
      vertex -34.5 -37.3 0
      vertex -34.5 37.2 0
    endloop
  endfacet
  facet normal 0 0 -1
    outer loop
      vertex -31.8 -37.3 0
      vertex -34.5 37.2 0
      vertex -31.8 37.2 0
    endloop
  endfacet
  facet normal 0 0 -1
    outer loop
      vertex -31.8 -37.3 0
      vertex -18.6 47.4 0
      vertex -31.8 -40.7 0
    endloop
  endfacet
  facet normal 0 0 -1
    outer loop
      vertex -31.8 37.2 0
      vertex -18.6 47.4 0
      vertex -31.8 -37.3 0
    endloop
  endfacet
  facet normal 0 0 -1
    outer loop
      vertex -31.8 40.6 0
      vertex -34.5 40.6 0
      vertex -34.5 44.2 0
    endloop
  endfacet
  facet normal 0 0 -1
    outer loop
      vertex -31.8 40.6 0
      vertex -34.5 44.2 0
      vertex -31.8 44.2 0
    endloop
  endfacet
  facet normal 0 0 -1
    outer loop
      vertex -31.8 40.6 0
      vertex -18.6 47.4 0
      vertex -31.8 37.2 0
    endloop
  endfacet
  facet normal 0 0 -1
    outer loop
      vertex -31.8 44.2 0
      vertex -31.8 47.4 0
      vertex -18.6 47.4 0
    endloop
  endfacet
  facet normal 0 0 -1
    outer loop
      vertex -31.8 44.2 0
      vertex -18.6 47.4 0
      vertex -31.8 40.6 0
    endloop
  endfacet
  facet normal 0 0 -1
    outer loop
      vertex -31.8 -44.3 0
      vertex -18.6 47.4 0
      vertex -18.6 44.4 0
    endloop
  endfacet
  facet normal 0 0 -1
    outer loop
      vertex -18.6 40.6 0
      vertex -18.6 44.4 0
      vertex 18.7 44.4 0
    endloop
  endfacet
  facet normal 0 0 -1
    outer loop
      vertex 18.7 44.4 0
      vertex 18.7 47.4 0
      vertex 31.9 47.4 0
    endloop
  endfacet
  facet normal 0 0 -1
    outer loop
      vertex 18.7 37.4 0
      vertex 31.9 47.4 0
      vertex -31.8 -44.3 0
    endloop
  endfacet
  facet normal 0 0 -1
    outer loop
      vertex -31.8 -44.3 0
      vertex 31.9 47.4 0
      vertex 31.9 44.2 0
    endloop
  endfacet
  facet normal 0 0 -1
    outer loop
      vertex -31.8 -44.3 0
      vertex 31.9 44.2 0
      vertex 34.6 44.2 0
    endloop
  endfacet
  facet normal 0 0 -1
    outer loop
      vertex 31.9 40.6 0
      vertex 34.6 44.2 0
      vertex 34.6 40.6 0
    endloop
  endfacet
  facet normal 0 0 -1
    outer loop
      vertex -31.8 -44.3 0
      vertex 34.6 44.2 0
      vertex 31.9 40.6 0
    endloop
  endfacet
  facet normal 0 0 -1
    outer loop
      vertex -31.8 -44.3 0
      vertex 31.9 40.6 0
      vertex 31.9 37.2 0
    endloop
  endfacet
  facet normal 0 0 -1
    outer loop
      vertex 18.7 -37.5 0
      vertex 31.9 -37.3 0
      vertex 18.7 -40.7 0
    endloop
  endfacet
  facet normal 0 0 -1
    outer loop
      vertex 31.9 -37.3 0
      vertex 34.6 37.2 0
      vertex 34.6 -37.3 0
    endloop
  endfacet
  facet normal 0 0 -1
    outer loop
      vertex -18.6 -37.5 0
      vertex 34.6 37.2 0
      vertex 31.9 -37.3 0
    endloop
  endfacet
  facet normal 0 0 -1
    outer loop
      vertex 18.7 -44.5 0
      vertex 31.9 -47.5 0
      vertex 18.7 -47.5 0
    endloop
  endfacet
  facet normal 0 0 -1
    outer loop
      vertex -31.8 -44.3 0
      vertex 31.9 -40.7 0
      vertex 34.6 -40.7 0
    endloop
  endfacet
  facet normal 0 0 -1
    outer loop
      vertex 31.9 -44.3 0
      vertex 34.6 -40.7 0
      vertex 34.6 -44.3 0
    endloop
  endfacet
  facet normal 0 0 -1
    outer loop
      vertex -31.8 -44.3 0
      vertex 34.6 -40.7 0
      vertex 31.9 -44.3 0
    endloop
  endfacet
  facet normal 0 0 -1
    outer loop
      vertex 34.6 37.2 0
      vertex -31.8 -44.3 0
      vertex 31.9 37.2 0
    endloop
  endfacet
  facet normal 0 0 -1
    outer loop
      vertex 31.9 -44.3 0
      vertex 31.9 -47.5 0
      vertex 18.7 -44.5 0
    endloop
  endfacet
  facet normal 0 0 -1
    outer loop
      vertex 31.9 -44.3 0
      vertex 18.7 -44.5 0
      vertex -31.8 -44.3 0
    endloop
  endfacet
  facet normal 0 0 -1
    outer loop
      vertex -18.6 -47.5 0
      vertex -31.8 -44.3 0
      vertex -18.6 -44.5 0
    endloop
  endfacet
  facet normal 0 0 -1
    outer loop
      vertex 18.7 -44.5 0
      vertex -18.6 -44.5 0
      vertex -31.8 -44.3 0
    endloop
  endfacet
  facet normal 0 0 -1
    outer loop
      vertex 31.9 -40.7 0
      vertex 18.7 -40.7 0
      vertex 31.9 -37.3 0
    endloop
  endfacet
  facet normal 0 0 -1
    outer loop
      vertex -31.8 -44.3 0
      vertex 34.6 37.2 0
      vertex -18.6 -37.5 0
    endloop
  endfacet
  facet normal 0 0 -1
    outer loop
      vertex -7.1 -37.5 0
      vertex -18.6 -37.5 0
      vertex 31.9 -37.3 0
    endloop
  endfacet
  facet normal 0 0 -1
    outer loop
      vertex -31.8 -44.3 0
      vertex -18.6 -37.5 0
      vertex -18.6 -40.7 0
    endloop
  endfacet
  facet normal 0 0 -1
    outer loop
      vertex -31.8 -44.3 0
      vertex -18.6 -40.7 0
      vertex -7.1 -40.7 0
    endloop
  endfacet
  facet normal 0 0 -1
    outer loop
      vertex 7.2 -37.5 0
      vertex -7.1 -37.5 0
      vertex 31.9 -37.3 0
    endloop
  endfacet
  facet normal 0 0 -1
    outer loop
      vertex -31.8 -44.3 0
      vertex -18.6 44.4 0
      vertex -18.6 40.6 0
    endloop
  endfacet
  facet normal 0 0 -1
    outer loop
      vertex -7.1 40.6 0
      vertex -18.6 40.6 0
      vertex 18.7 44.4 0
    endloop
  endfacet
  facet normal 0 0 -1
    outer loop
      vertex -31.8 -44.3 0
      vertex -18.6 40.6 0
      vertex -18.6 37.4 0
    endloop
  endfacet
  facet normal 0 0 -1
    outer loop
      vertex 7.2 -40.7 0
      vertex -7.1 -40.7 0
      vertex 7.2 -37.5 0
    endloop
  endfacet
  facet normal 0 0 -1
    outer loop
      vertex -31.8 -44.3 0
      vertex -18.6 37.4 0
      vertex -7.1 37.4 0
    endloop
  endfacet
  facet normal 0 0 -1
    outer loop
      vertex 7.2 40.6 0
      vertex -7.1 37.4 0
      vertex 18.7 44.4 0
    endloop
  endfacet
  facet normal 0 0 -1
    outer loop
      vertex 7.2 -40.7 0
      vertex -31.8 -44.3 0
      vertex -7.1 -40.7 0
    endloop
  endfacet
  facet normal 0 0 -1
    outer loop
      vertex -7.1 40.6 0
      vertex 18.7 44.4 0
      vertex -7.1 37.4 0
    endloop
  endfacet
  facet normal 0 0 -1
    outer loop
      vertex 18.7 -37.5 0
      vertex 7.2 -37.5 0
      vertex 31.9 -37.3 0
    endloop
  endfacet
  facet normal 0 0 -1
    outer loop
      vertex -31.8 -44.3 0
      vertex 18.7 -40.7 0
      vertex 31.9 -40.7 0
    endloop
  endfacet
  facet normal 0 0 -1
    outer loop
      vertex 7.2 -40.7 0
      vertex 18.7 -40.7 0
      vertex -31.8 -44.3 0
    endloop
  endfacet
  facet normal 0 0 -1
    outer loop
      vertex 7.2 40.6 0
      vertex 18.7 44.4 0
      vertex 18.7 40.6 0
    endloop
  endfacet
  facet normal 0 0 -1
    outer loop
      vertex -31.8 -44.3 0
      vertex -7.1 37.4 0
      vertex 7.2 40.6 0
    endloop
  endfacet
  facet normal 0 0 -1
    outer loop
      vertex 18.7 37.4 0
      vertex -31.8 -44.3 0
      vertex 7.2 37.4 0
    endloop
  endfacet
  facet normal 0 0 -1
    outer loop
      vertex -31.8 -44.3 0
      vertex 7.2 40.6 0
      vertex 7.2 37.4 0
    endloop
  endfacet
  facet normal 0 0 -1
    outer loop
      vertex 18.7 44.4 0
      vertex 31.9 47.4 0
      vertex 18.7 37.4 0
    endloop
  endfacet
  facet normal 0 0 -1
    outer loop
      vertex 18.7 44.4 0
      vertex 18.7 37.4 0
      vertex 18.7 40.6 0
    endloop
  endfacet
  facet normal 0 0 -1
    outer loop
      vertex -7.1 -37.5 0
      vertex 7.2 -37.5 0
      vertex -7.1 -40.7 0
    endloop
  endfacet
  facet normal 0 0 -1
    outer loop
      vertex -31.8 -44.3 0
      vertex -18.6 -47.5 0
      vertex -31.8 -47.5 0
    endloop
  endfacet
  facet normal 0 0 1
    outer loop
      vertex -18.6 -44.5 3
      vertex 18.7 -44.5 3
      vertex -34.5 -40.7 3
    endloop
  endfacet
  facet normal 0 0 1
    outer loop
      vertex -34.5 -40.7 3
      vertex -34.5 -44.3 3
      vertex -31.8 -44.3 3
    endloop
  endfacet
  facet normal 0 0 1
    outer loop
      vertex -18.6 -47.5 3
      vertex -34.5 -40.7 3
      vertex -31.8 -44.3 3
    endloop
  endfacet
  facet normal 0 0 1
    outer loop
      vertex -31.8 -47.5 3
      vertex -18.6 -47.5 3
      vertex -31.8 -44.3 3
    endloop
  endfacet
  facet normal 0 0 1
    outer loop
      vertex -18.6 -47.5 3
      vertex -18.6 -44.5 3
      vertex -34.5 -40.7 3
    endloop
  endfacet
  facet normal 0 0 1
    outer loop
      vertex 18.7 -44.5 3
      vertex 31.9 -44.3 3
      vertex -34.5 -40.7 3
    endloop
  endfacet
  facet normal 0 0 1
    outer loop
      vertex 31.9 -44.3 3
      vertex 34.6 -44.3 3
      vertex -34.5 -40.7 3
    endloop
  endfacet
  facet normal 0 0 1
    outer loop
      vertex 18.7 -47.5 3
      vertex 31.9 -47.5 3
      vertex 18.7 -44.5 3
    endloop
  endfacet
  facet normal 0 0 1
    outer loop
      vertex 31.9 -47.5 3
      vertex 31.9 -44.3 3
      vertex 18.7 -44.5 3
    endloop
  endfacet
  facet normal 0 0 1
    outer loop
      vertex -7.1 40.6 3
      vertex -7.1 37.4 3
      vertex 18.7 44.4 3
    endloop
  endfacet
  facet normal 0 0 1
    outer loop
      vertex 34.6 -44.3 3
      vertex 31.9 -40.7 3
      vertex 18.7 -40.7 3
    endloop
  endfacet
  facet normal 0 0 1
    outer loop
      vertex 34.6 -44.3 3
      vertex 34.6 -40.7 3
      vertex 31.9 -40.7 3
    endloop
  endfacet
  facet normal 0 0 1
    outer loop
      vertex -18.6 -37.5 3
      vertex 31.9 -37.3 3
      vertex 34.6 37.2 3
    endloop
  endfacet
  facet normal 0 0 1
    outer loop
      vertex 31.9 -37.3 3
      vertex 34.6 -37.3 3
      vertex 34.6 37.2 3
    endloop
  endfacet
  facet normal 0 0 1
    outer loop
      vertex 31.9 40.6 3
      vertex 34.6 40.6 3
      vertex 34.6 44.2 3
    endloop
  endfacet
  facet normal 0 0 1
    outer loop
      vertex -31.8 -37.3 3
      vertex 31.9 40.6 3
      vertex 34.6 44.2 3
    endloop
  endfacet
  facet normal 0 0 1
    outer loop
      vertex -31.8 -37.3 3
      vertex 34.6 44.2 3
      vertex 31.9 44.2 3
    endloop
  endfacet
  facet normal 0 0 1
    outer loop
      vertex 18.7 44.4 3
      vertex 31.9 47.4 3
      vertex 18.7 47.4 3
    endloop
  endfacet
  facet normal 0 0 1
    outer loop
      vertex 7.2 40.6 3
      vertex 18.7 40.6 3
      vertex 18.7 44.4 3
    endloop
  endfacet
  facet normal 0 0 1
    outer loop
      vertex 18.7 40.6 3
      vertex 31.9 47.4 3
      vertex 18.7 44.4 3
    endloop
  endfacet
  facet normal 0 0 1
    outer loop
      vertex -31.8 -37.3 3
      vertex -31.8 -40.7 3
      vertex -18.6 -37.5 3
    endloop
  endfacet
  facet normal 0 0 1
    outer loop
      vertex -31.8 44.2 3
      vertex -18.6 47.4 3
      vertex -31.8 47.4 3
    endloop
  endfacet
  facet normal 0 0 1
    outer loop
      vertex -34.5 -37.3 3
      vertex -7.1 37.4 3
      vertex -18.6 37.4 3
    endloop
  endfacet
  facet normal 0 0 1
    outer loop
      vertex -31.8 40.6 3
      vertex -18.6 47.4 3
      vertex -31.8 44.2 3
    endloop
  endfacet
  facet normal 0 0 1
    outer loop
      vertex -34.5 -37.3 3
      vertex -18.6 47.4 3
      vertex -31.8 37.2 3
    endloop
  endfacet
  facet normal 0 0 1
    outer loop
      vertex -31.8 37.2 3
      vertex -18.6 47.4 3
      vertex -31.8 40.6 3
    endloop
  endfacet
  facet normal 0 0 1
    outer loop
      vertex -34.5 -37.3 3
      vertex -18.6 44.4 3
      vertex -18.6 47.4 3
    endloop
  endfacet
  facet normal 0 0 1
    outer loop
      vertex -34.5 40.6 3
      vertex -31.8 40.6 3
      vertex -31.8 44.2 3
    endloop
  endfacet
  facet normal 0 0 1
    outer loop
      vertex 34.6 -44.3 3
      vertex -31.8 -40.7 3
      vertex -34.5 -40.7 3
    endloop
  endfacet
  facet normal 0 0 1
    outer loop
      vertex 34.6 -44.3 3
      vertex -18.6 -40.7 3
      vertex -31.8 -40.7 3
    endloop
  endfacet
  facet normal 0 0 1
    outer loop
      vertex -7.1 -37.5 3
      vertex 31.9 -37.3 3
      vertex -18.6 -37.5 3
    endloop
  endfacet
  facet normal 0 0 1
    outer loop
      vertex -18.6 -40.7 3
      vertex -18.6 -37.5 3
      vertex -31.8 -40.7 3
    endloop
  endfacet
  facet normal 0 0 1
    outer loop
      vertex 7.2 -37.5 3
      vertex 31.9 -37.3 3
      vertex -7.1 -37.5 3
    endloop
  endfacet
  facet normal 0 0 1
    outer loop
      vertex 34.6 -44.3 3
      vertex -7.1 -40.7 3
      vertex -18.6 -40.7 3
    endloop
  endfacet
  facet normal 0 0 1
    outer loop
      vertex 18.7 37.4 3
      vertex 7.2 37.4 3
      vertex -34.5 -37.3 3
    endloop
  endfacet
  facet normal 0 0 1
    outer loop
      vertex -34.5 -37.3 3
      vertex -18.6 37.4 3
      vertex -18.6 44.4 3
    endloop
  endfacet
  facet normal 0 0 1
    outer loop
      vertex -18.6 37.4 3
      vertex -18.6 40.6 3
      vertex -18.6 44.4 3
    endloop
  endfacet
  facet normal 0 0 1
    outer loop
      vertex -31.8 37.2 3
      vertex -34.5 37.2 3
      vertex -34.5 -37.3 3
    endloop
  endfacet
  facet normal 0 0 1
    outer loop
      vertex 18.7 -37.5 3
      vertex 18.7 -40.7 3
      vertex 31.9 -37.3 3
    endloop
  endfacet
  facet normal 0 0 1
    outer loop
      vertex -31.8 44.2 3
      vertex -34.5 44.2 3
      vertex -34.5 40.6 3
    endloop
  endfacet
  facet normal 0 0 1
    outer loop
      vertex 34.6 -44.3 3
      vertex 7.2 -40.7 3
      vertex -7.1 -40.7 3
    endloop
  endfacet
  facet normal 0 0 1
    outer loop
      vertex 18.7 -37.5 3
      vertex 31.9 -37.3 3
      vertex 7.2 -37.5 3
    endloop
  endfacet
  facet normal 0 0 1
    outer loop
      vertex 7.2 -40.7 3
      vertex 7.2 -37.5 3
      vertex -7.1 -40.7 3
    endloop
  endfacet
  facet normal 0 0 1
    outer loop
      vertex 34.6 -44.3 3
      vertex 18.7 -40.7 3
      vertex 7.2 -40.7 3
    endloop
  endfacet
  facet normal 0 0 1
    outer loop
      vertex 31.9 -40.7 3
      vertex 31.9 -37.3 3
      vertex 18.7 -40.7 3
    endloop
  endfacet
  facet normal 0 0 1
    outer loop
      vertex 7.2 37.4 3
      vertex 7.2 40.6 3
      vertex -7.1 37.4 3
    endloop
  endfacet
  facet normal 0 0 1
    outer loop
      vertex -34.5 -37.3 3
      vertex 7.2 37.4 3
      vertex -7.1 37.4 3
    endloop
  endfacet
  facet normal 0 0 1
    outer loop
      vertex -31.8 -37.3 3
      vertex -18.6 -37.5 3
      vertex 34.6 37.2 3
    endloop
  endfacet
  facet normal 0 0 1
    outer loop
      vertex 18.7 37.4 3
      vertex 31.9 47.4 3
      vertex 18.7 40.6 3
    endloop
  endfacet
  facet normal 0 0 1
    outer loop
      vertex -31.8 -37.3 3
      vertex 34.6 37.2 3
      vertex 31.9 37.2 3
    endloop
  endfacet
  facet normal 0 0 1
    outer loop
      vertex -31.8 -37.3 3
      vertex 31.9 37.2 3
      vertex 31.9 40.6 3
    endloop
  endfacet
  facet normal 0 0 1
    outer loop
      vertex -7.1 -37.5 3
      vertex -7.1 -40.7 3
      vertex 7.2 -37.5 3
    endloop
  endfacet
  facet normal 0 0 1
    outer loop
      vertex 18.7 44.4 3
      vertex -7.1 37.4 3
      vertex 7.2 40.6 3
    endloop
  endfacet
  facet normal 0 0 1
    outer loop
      vertex 18.7 44.4 3
      vertex -18.6 40.6 3
      vertex -7.1 40.6 3
    endloop
  endfacet
  facet normal 0 0 1
    outer loop
      vertex 18.7 44.4 3
      vertex -18.6 44.4 3
      vertex -18.6 40.6 3
    endloop
  endfacet
  facet normal 0 0 1
    outer loop
      vertex -34.5 -37.3 3
      vertex 31.9 47.4 3
      vertex 18.7 37.4 3
    endloop
  endfacet
  facet normal 0 0 1
    outer loop
      vertex -34.5 -37.3 3
      vertex 31.9 44.2 3
      vertex 31.9 47.4 3
    endloop
  endfacet
  facet normal 0 0 1
    outer loop
      vertex -34.5 -37.3 3
      vertex -31.8 -37.3 3
      vertex 31.9 44.2 3
    endloop
  endfacet
  facet normal 0 1 0
    outer loop
      vertex -34.5 -40.7 0
      vertex -34.5 -40.7 3
      vertex -31.8 -40.7 0
    endloop
  endfacet
  facet normal 0 1 0
    outer loop
      vertex -31.8 -40.7 0
      vertex -34.5 -40.7 3
      vertex -31.8 -40.7 3
    endloop
  endfacet
  facet normal -1 0 0
    outer loop
      vertex -31.8 -47.5 0
      vertex -31.8 -47.5 3
      vertex -31.8 -44.3 0
    endloop
  endfacet
  facet normal -1 0 0
    outer loop
      vertex -31.8 -44.3 0
      vertex -31.8 -47.5 3
      vertex -31.8 -44.3 3
    endloop
  endfacet
  facet normal 0 -1 0
    outer loop
      vertex -18.6 -47.5 0
      vertex -18.6 -47.5 3
      vertex -31.8 -47.5 3
    endloop
  endfacet
  facet normal 0 -1 0
    outer loop
      vertex -31.8 -47.5 0
      vertex -18.6 -47.5 0
      vertex -31.8 -47.5 3
    endloop
  endfacet
  facet normal 1 0 0
    outer loop
      vertex -18.6 -47.5 3
      vertex -18.6 -47.5 0
      vertex -18.6 -44.5 0
    endloop
  endfacet
  facet normal 1 0 0
    outer loop
      vertex -18.6 -44.5 3
      vertex -18.6 -47.5 3
      vertex -18.6 -44.5 0
    endloop
  endfacet
  facet normal 0 -1 0
    outer loop
      vertex 18.7 -44.5 0
      vertex 18.7 -44.5 3
      vertex -18.6 -44.5 3
    endloop
  endfacet
  facet normal 0 -1 0
    outer loop
      vertex -18.6 -44.5 0
      vertex 18.7 -44.5 0
      vertex -18.6 -44.5 3
    endloop
  endfacet
  facet normal -1 0 0
    outer loop
      vertex 18.7 -44.5 3
      vertex 18.7 -44.5 0
      vertex 18.7 -47.5 3
    endloop
  endfacet
  facet normal -1 0 0
    outer loop
      vertex 18.7 -47.5 3
      vertex 18.7 -44.5 0
      vertex 18.7 -47.5 0
    endloop
  endfacet
  facet normal 0 -1 0
    outer loop
      vertex 18.7 -47.5 3
      vertex 18.7 -47.5 0
      vertex 31.9 -47.5 0
    endloop
  endfacet
  facet normal 0 -1 0
    outer loop
      vertex 31.9 -47.5 3
      vertex 18.7 -47.5 3
      vertex 31.9 -47.5 0
    endloop
  endfacet
  facet normal 1 0 0
    outer loop
      vertex 31.9 -44.3 0
      vertex 31.9 -44.3 3
      vertex 31.9 -47.5 3
    endloop
  endfacet
  facet normal 1 0 0
    outer loop
      vertex 31.9 -47.5 0
      vertex 31.9 -44.3 0
      vertex 31.9 -47.5 3
    endloop
  endfacet
  facet normal 0 -1 0
    outer loop
      vertex 34.6 -44.3 0
      vertex 34.6 -44.3 3
      vertex 31.9 -44.3 3
    endloop
  endfacet
  facet normal 0 -1 0
    outer loop
      vertex 31.9 -44.3 0
      vertex 34.6 -44.3 0
      vertex 31.9 -44.3 3
    endloop
  endfacet
  facet normal 1 0 0
    outer loop
      vertex 34.6 -44.3 3
      vertex 34.6 -44.3 0
      vertex 34.6 -40.7 0
    endloop
  endfacet
  facet normal 1 0 0
    outer loop
      vertex 34.6 -40.7 3
      vertex 34.6 -44.3 3
      vertex 34.6 -40.7 0
    endloop
  endfacet
  facet normal 0 1 0
    outer loop
      vertex 34.6 -40.7 3
      vertex 34.6 -40.7 0
      vertex 31.9 -40.7 3
    endloop
  endfacet
  facet normal 0 1 0
    outer loop
      vertex 31.9 -40.7 3
      vertex 34.6 -40.7 0
      vertex 31.9 -40.7 0
    endloop
  endfacet
  facet normal 1 0 0
    outer loop
      vertex 31.9 -37.3 0
      vertex 31.9 -37.3 3
      vertex 31.9 -40.7 3
    endloop
  endfacet
  facet normal 1 0 0
    outer loop
      vertex 31.9 -40.7 0
      vertex 31.9 -37.3 0
      vertex 31.9 -40.7 3
    endloop
  endfacet
  facet normal 0 -1 0
    outer loop
      vertex 34.6 -37.3 0
      vertex 34.6 -37.3 3
      vertex 31.9 -37.3 3
    endloop
  endfacet
  facet normal 0 -1 0
    outer loop
      vertex 31.9 -37.3 0
      vertex 34.6 -37.3 0
      vertex 31.9 -37.3 3
    endloop
  endfacet
  facet normal 1 0 0
    outer loop
      vertex 34.6 -37.3 3
      vertex 34.6 -37.3 0
      vertex 34.6 37.2 0
    endloop
  endfacet
  facet normal 1 0 0
    outer loop
      vertex 34.6 37.2 3
      vertex 34.6 -37.3 3
      vertex 34.6 37.2 0
    endloop
  endfacet
  facet normal 0 1 0
    outer loop
      vertex 31.9 37.2 0
      vertex 31.9 37.2 3
      vertex 34.6 37.2 0
    endloop
  endfacet
  facet normal 0 1 0
    outer loop
      vertex 34.6 37.2 0
      vertex 31.9 37.2 3
      vertex 34.6 37.2 3
    endloop
  endfacet
  facet normal 1 0 0
    outer loop
      vertex 31.9 37.2 3
      vertex 31.9 37.2 0
      vertex 31.9 40.6 0
    endloop
  endfacet
  facet normal 1 0 0
    outer loop
      vertex 31.9 40.6 3
      vertex 31.9 37.2 3
      vertex 31.9 40.6 0
    endloop
  endfacet
  facet normal 0 -1 0
    outer loop
      vertex 31.9 40.6 3
      vertex 31.9 40.6 0
      vertex 34.6 40.6 0
    endloop
  endfacet
  facet normal 0 -1 0
    outer loop
      vertex 34.6 40.6 3
      vertex 31.9 40.6 3
      vertex 34.6 40.6 0
    endloop
  endfacet
  facet normal 1 0 0
    outer loop
      vertex 34.6 44.2 0
      vertex 34.6 44.2 3
      vertex 34.6 40.6 3
    endloop
  endfacet
  facet normal 1 0 0
    outer loop
      vertex 34.6 40.6 0
      vertex 34.6 44.2 0
      vertex 34.6 40.6 3
    endloop
  endfacet
  facet normal 0 1 0
    outer loop
      vertex 31.9 44.2 0
      vertex 31.9 44.2 3
      vertex 34.6 44.2 0
    endloop
  endfacet
  facet normal 0 1 0
    outer loop
      vertex 34.6 44.2 0
      vertex 31.9 44.2 3
      vertex 34.6 44.2 3
    endloop
  endfacet
  facet normal 1 0 0
    outer loop
      vertex 31.9 44.2 3
      vertex 31.9 44.2 0
      vertex 31.9 47.4 0
    endloop
  endfacet
  facet normal 1 0 0
    outer loop
      vertex 31.9 47.4 3
      vertex 31.9 44.2 3
      vertex 31.9 47.4 0
    endloop
  endfacet
  facet normal 0 1 0
    outer loop
      vertex 31.9 47.4 3
      vertex 31.9 47.4 0
      vertex 18.7 47.4 3
    endloop
  endfacet
  facet normal 0 1 0
    outer loop
      vertex 18.7 47.4 3
      vertex 31.9 47.4 0
      vertex 18.7 47.4 0
    endloop
  endfacet
  facet normal -1 0 0
    outer loop
      vertex 18.7 44.4 0
      vertex 18.7 44.4 3
      vertex 18.7 47.4 0
    endloop
  endfacet
  facet normal -1 0 0
    outer loop
      vertex 18.7 47.4 0
      vertex 18.7 44.4 3
      vertex 18.7 47.4 3
    endloop
  endfacet
  facet normal 0 1 0
    outer loop
      vertex -18.6 44.4 0
      vertex -18.6 44.4 3
      vertex 18.7 44.4 0
    endloop
  endfacet
  facet normal 0 1 0
    outer loop
      vertex 18.7 44.4 0
      vertex -18.6 44.4 3
      vertex 18.7 44.4 3
    endloop
  endfacet
  facet normal 1 0 0
    outer loop
      vertex -18.6 47.4 0
      vertex -18.6 47.4 3
      vertex -18.6 44.4 3
    endloop
  endfacet
  facet normal 1 0 0
    outer loop
      vertex -18.6 44.4 0
      vertex -18.6 47.4 0
      vertex -18.6 44.4 3
    endloop
  endfacet
  facet normal 0 1 0
    outer loop
      vertex -31.8 47.4 0
      vertex -31.8 47.4 3
      vertex -18.6 47.4 0
    endloop
  endfacet
  facet normal 0 1 0
    outer loop
      vertex -18.6 47.4 0
      vertex -31.8 47.4 3
      vertex -18.6 47.4 3
    endloop
  endfacet
  facet normal -1 0 0
    outer loop
      vertex -31.8 47.4 3
      vertex -31.8 47.4 0
      vertex -31.8 44.2 3
    endloop
  endfacet
  facet normal -1 0 0
    outer loop
      vertex -31.8 44.2 3
      vertex -31.8 47.4 0
      vertex -31.8 44.2 0
    endloop
  endfacet
  facet normal 0 1 0
    outer loop
      vertex -31.8 44.2 3
      vertex -31.8 44.2 0
      vertex -34.5 44.2 3
    endloop
  endfacet
  facet normal 0 1 0
    outer loop
      vertex -34.5 44.2 3
      vertex -31.8 44.2 0
      vertex -34.5 44.2 0
    endloop
  endfacet
  facet normal -1 0 0
    outer loop
      vertex -34.5 40.6 0
      vertex -34.5 40.6 3
      vertex -34.5 44.2 0
    endloop
  endfacet
  facet normal -1 0 0
    outer loop
      vertex -34.5 44.2 0
      vertex -34.5 40.6 3
      vertex -34.5 44.2 3
    endloop
  endfacet
  facet normal 0 -1 0
    outer loop
      vertex -31.8 40.6 0
      vertex -31.8 40.6 3
      vertex -34.5 40.6 3
    endloop
  endfacet
  facet normal 0 -1 0
    outer loop
      vertex -34.5 40.6 0
      vertex -31.8 40.6 0
      vertex -34.5 40.6 3
    endloop
  endfacet
  facet normal -1 0 0
    outer loop
      vertex -31.8 40.6 3
      vertex -31.8 40.6 0
      vertex -31.8 37.2 3
    endloop
  endfacet
  facet normal -1 0 0
    outer loop
      vertex -31.8 37.2 3
      vertex -31.8 40.6 0
      vertex -31.8 37.2 0
    endloop
  endfacet
  facet normal 0 1 0
    outer loop
      vertex -31.8 37.2 3
      vertex -31.8 37.2 0
      vertex -34.5 37.2 3
    endloop
  endfacet
  facet normal 0 1 0
    outer loop
      vertex -34.5 37.2 3
      vertex -31.8 37.2 0
      vertex -34.5 37.2 0
    endloop
  endfacet
  facet normal -1 0 0
    outer loop
      vertex -34.5 37.2 3
      vertex -34.5 37.2 0
      vertex -34.5 -37.3 3
    endloop
  endfacet
  facet normal -1 0 0
    outer loop
      vertex -34.5 -37.3 3
      vertex -34.5 37.2 0
      vertex -34.5 -37.3 0
    endloop
  endfacet
  facet normal 0 -1 0
    outer loop
      vertex -34.5 -37.3 3
      vertex -34.5 -37.3 0
      vertex -31.8 -37.3 0
    endloop
  endfacet
  facet normal 0 -1 0
    outer loop
      vertex -31.8 -37.3 3
      vertex -34.5 -37.3 3
      vertex -31.8 -37.3 0
    endloop
  endfacet
  facet normal -1 0 0
    outer loop
      vertex -31.8 -40.7 0
      vertex -31.8 -40.7 3
      vertex -31.8 -37.3 0
    endloop
  endfacet
  facet normal -1 0 0
    outer loop
      vertex -31.8 -37.3 0
      vertex -31.8 -40.7 3
      vertex -31.8 -37.3 3
    endloop
  endfacet
  facet normal 0 -1 0
    outer loop
      vertex -18.6 -37.5 3
      vertex -18.6 -37.5 0
      vertex -7.1 -37.5 0
    endloop
  endfacet
  facet normal 0 -1 0
    outer loop
      vertex -7.1 -37.5 3
      vertex -18.6 -37.5 3
      vertex -7.1 -37.5 0
    endloop
  endfacet
  facet normal 1 0 0
    outer loop
      vertex -18.6 -40.7 3
      vertex -18.6 -40.7 0
      vertex -18.6 -37.5 0
    endloop
  endfacet
  facet normal 1 0 0
    outer loop
      vertex -18.6 -37.5 3
      vertex -18.6 -40.7 3
      vertex -18.6 -37.5 0
    endloop
  endfacet
  facet normal -1 0 0
    outer loop
      vertex -7.1 -40.7 0
      vertex -7.1 -40.7 3
      vertex -7.1 -37.5 0
    endloop
  endfacet
  facet normal -1 0 0
    outer loop
      vertex -7.1 -37.5 0
      vertex -7.1 -40.7 3
      vertex -7.1 -37.5 3
    endloop
  endfacet
  facet normal 0 1 0
    outer loop
      vertex -18.6 -40.7 0
      vertex -18.6 -40.7 3
      vertex -7.1 -40.7 0
    endloop
  endfacet
  facet normal 0 1 0
    outer loop
      vertex -7.1 -40.7 0
      vertex -18.6 -40.7 3
      vertex -7.1 -40.7 3
    endloop
  endfacet
  facet normal 1 0 0
    outer loop
      vertex -18.6 40.6 0
      vertex -18.6 40.6 3
      vertex -18.6 37.4 3
    endloop
  endfacet
  facet normal 1 0 0
    outer loop
      vertex -18.6 37.4 0
      vertex -18.6 40.6 0
      vertex -18.6 37.4 3
    endloop
  endfacet
  facet normal 0 -1 0
    outer loop
      vertex -7.1 40.6 0
      vertex -7.1 40.6 3
      vertex -18.6 40.6 3
    endloop
  endfacet
  facet normal 0 -1 0
    outer loop
      vertex -18.6 40.6 0
      vertex -7.1 40.6 0
      vertex -18.6 40.6 3
    endloop
  endfacet
  facet normal -1 0 0
    outer loop
      vertex -7.1 40.6 3
      vertex -7.1 40.6 0
      vertex -7.1 37.4 3
    endloop
  endfacet
  facet normal -1 0 0
    outer loop
      vertex -7.1 37.4 3
      vertex -7.1 40.6 0
      vertex -7.1 37.4 0
    endloop
  endfacet
  facet normal 0 1 0
    outer loop
      vertex -7.1 37.4 3
      vertex -7.1 37.4 0
      vertex -18.6 37.4 3
    endloop
  endfacet
  facet normal 0 1 0
    outer loop
      vertex -18.6 37.4 3
      vertex -7.1 37.4 0
      vertex -18.6 37.4 0
    endloop
  endfacet
  facet normal 1 0 0
    outer loop
      vertex 7.2 -37.5 0
      vertex 7.2 -37.5 3
      vertex 7.2 -40.7 3
    endloop
  endfacet
  facet normal 1 0 0
    outer loop
      vertex 7.2 -40.7 0
      vertex 7.2 -37.5 0
      vertex 7.2 -40.7 3
    endloop
  endfacet
  facet normal 0 -1 0
    outer loop
      vertex 18.7 -37.5 0
      vertex 18.7 -37.5 3
      vertex 7.2 -37.5 3
    endloop
  endfacet
  facet normal 0 -1 0
    outer loop
      vertex 7.2 -37.5 0
      vertex 18.7 -37.5 0
      vertex 7.2 -37.5 3
    endloop
  endfacet
  facet normal -1 0 0
    outer loop
      vertex 18.7 -37.5 3
      vertex 18.7 -37.5 0
      vertex 18.7 -40.7 3
    endloop
  endfacet
  facet normal -1 0 0
    outer loop
      vertex 18.7 -40.7 3
      vertex 18.7 -37.5 0
      vertex 18.7 -40.7 0
    endloop
  endfacet
  facet normal 0 1 0
    outer loop
      vertex 18.7 -40.7 3
      vertex 18.7 -40.7 0
      vertex 7.2 -40.7 3
    endloop
  endfacet
  facet normal 0 1 0
    outer loop
      vertex 7.2 -40.7 3
      vertex 18.7 -40.7 0
      vertex 7.2 -40.7 0
    endloop
  endfacet
  facet normal 1 0 0
    outer loop
      vertex 7.2 37.4 3
      vertex 7.2 37.4 0
      vertex 7.2 40.6 0
    endloop
  endfacet
  facet normal 1 0 0
    outer loop
      vertex 7.2 40.6 3
      vertex 7.2 37.4 3
      vertex 7.2 40.6 0
    endloop
  endfacet
  facet normal 0 -1 0
    outer loop
      vertex 7.2 40.6 3
      vertex 7.2 40.6 0
      vertex 18.7 40.6 0
    endloop
  endfacet
  facet normal 0 -1 0
    outer loop
      vertex 18.7 40.6 3
      vertex 7.2 40.6 3
      vertex 18.7 40.6 0
    endloop
  endfacet
  facet normal -1 0 0
    outer loop
      vertex 18.7 37.4 0
      vertex 18.7 37.4 3
      vertex 18.7 40.6 0
    endloop
  endfacet
  facet normal -1 0 0
    outer loop
      vertex 18.7 40.6 0
      vertex 18.7 37.4 3
      vertex 18.7 40.6 3
    endloop
  endfacet
  facet normal 0 1 0
    outer loop
      vertex 7.2 37.4 0
      vertex 7.2 37.4 3
      vertex 18.7 37.4 0
    endloop
  endfacet
  facet normal 0 1 0
    outer loop
      vertex 18.7 37.4 0
      vertex 7.2 37.4 3
      vertex 18.7 37.4 3
    endloop
  endfacet
endsolid OpenSCAD_Model
