solid OpenSCAD_Model
  facet normal -1 0 0
    outer loop
      vertex -34.1 37.1 2.6
      vertex -34.1 37.1 0
      vertex -34.1 -36.7 2.6
    endloop
  endfacet
  facet normal -1 0 0
    outer loop
      vertex -34.1 -36.7 2.6
      vertex -34.1 37.1 0
      vertex -34.1 -36.7 0
    endloop
  endfacet
  facet normal 0 -1 0
    outer loop
      vertex -3.7 -36.7 0
      vertex -3.7 -36.7 2.6
      vertex -34.1 -36.7 2.6
    endloop
  endfacet
  facet normal 0 -1 0
    outer loop
      vertex -34.1 -36.7 0
      vertex -3.7 -36.7 0
      vertex -34.1 -36.7 2.6
    endloop
  endfacet
  facet normal 0 0 -1
    outer loop
      vertex -34.1 -36.7 0
      vertex -34.1 37.1 0
      vertex -3.7 -36.7 0
    endloop
  endfacet
  facet normal 0 0 -1
    outer loop
      vertex -3.7 -36.7 0
      vertex -34.1 37.1 0
      vertex -3.7 37.1 0
    endloop
  endfacet
  facet normal 0 0 -1
    outer loop
      vertex -3.7 37.1 0
      vertex -3.7 44.3 0
      vertex 3.8 44.3 0
    endloop
  endfacet
  facet normal 0 0 -1
    outer loop
      vertex -3.7 37.1 0
      vertex 3.8 44.3 0
      vertex -3.7 -36.7 0
    endloop
  endfacet
  facet normal 0 0 -1
    outer loop
      vertex -3.7 -36.7 0
      vertex 3.8 44.3 0
      vertex 3.8 37.1 0
    endloop
  endfacet
  facet normal 0 0 -1
    outer loop
      vertex -3.7 -36.7 0
      vertex 3.8 37.1 0
      vertex 34.2 37.1 0
    endloop
  endfacet
  facet normal 0 0 -1
    outer loop
      vertex 3.8 -36.7 0
      vertex 34.2 37.1 0
      vertex 34.2 -36.7 0
    endloop
  endfacet
  facet normal 0 0 -1
    outer loop
      vertex -3.7 -36.7 0
      vertex 34.2 37.1 0
      vertex 3.8 -36.7 0
    endloop
  endfacet
  facet normal 0 0 -1
    outer loop
      vertex 3.8 -36.7 0
      vertex 3.8 -44.3 0
      vertex -3.7 -36.7 0
    endloop
  endfacet
  facet normal 0 0 -1
    outer loop
      vertex -3.7 -36.7 0
      vertex 3.8 -44.3 0
      vertex -3.7 -44.3 0
    endloop
  endfacet
  facet normal 0 0 1
    outer loop
      vertex -3.7 -36.7 2.6
      vertex -3.7 37.1 2.6
      vertex -34.1 37.1 2.6
    endloop
  endfacet
  facet normal 0 0 1
    outer loop
      vertex -34.1 -36.7 2.6
      vertex -3.7 -36.7 2.6
      vertex -34.1 37.1 2.6
    endloop
  endfacet
  facet normal 0 1 0
    outer loop
      vertex -3.7 37.1 2.6
      vertex -3.7 37.1 0
      vertex -34.1 37.1 2.6
    endloop
  endfacet
  facet normal 0 1 0
    outer loop
      vertex -34.1 37.1 2.6
      vertex -3.7 37.1 0
      vertex -34.1 37.1 0
    endloop
  endfacet
  facet normal -1 0 0
    outer loop
      vertex -3.7 -36.7 2.6
      vertex -3.7 -36.7 0
      vertex -3.7 -44.3 2.6
    endloop
  endfacet
  facet normal -1 0 0
    outer loop
      vertex -3.7 -44.3 2.6
      vertex -3.7 -36.7 0
      vertex -3.7 -44.3 0
    endloop
  endfacet
  facet normal 0 0 1
    outer loop
      vertex -3.7 -36.7 2.6
      vertex -3.7 -44.3 2.6
      vertex 3.8 -44.3 2.6
    endloop
  endfacet
  facet normal 0 0 1
    outer loop
      vertex 3.8 -36.7 2.6
      vertex -3.7 -36.7 2.6
      vertex 3.8 -44.3 2.6
    endloop
  endfacet
  facet normal -1 0 0
    outer loop
      vertex -3.7 37.1 5.6
      vertex -3.7 37.1 2.6
      vertex -3.7 -36.7 5.6
    endloop
  endfacet
  facet normal -1 0 0
    outer loop
      vertex -3.7 -36.7 5.6
      vertex -3.7 37.1 2.6
      vertex -3.7 -36.7 2.6
    endloop
  endfacet
  facet normal 0 -1 0
    outer loop
      vertex -3.7 -36.7 5.6
      vertex -3.7 -36.7 2.6
      vertex 3.8 -36.7 2.6
    endloop
  endfacet
  facet normal 0 -1 0
    outer loop
      vertex 3.8 -36.7 5.6
      vertex -3.7 -36.7 5.6
      vertex 3.8 -36.7 2.6
    endloop
  endfacet
  facet normal 0 -1 0
    outer loop
      vertex -3.7 -44.3 2.6
      vertex -3.7 -44.3 0
      vertex 3.8 -44.3 0
    endloop
  endfacet
  facet normal 0 -1 0
    outer loop
      vertex 3.8 -44.3 2.6
      vertex -3.7 -44.3 2.6
      vertex 3.8 -44.3 0
    endloop
  endfacet
  facet normal 1 0 0
    outer loop
      vertex 3.8 -44.3 2.6
      vertex 3.8 -44.3 0
      vertex 3.8 -36.7 0
    endloop
  endfacet
  facet normal 1 0 0
    outer loop
      vertex 3.8 -36.7 2.6
      vertex 3.8 -44.3 2.6
      vertex 3.8 -36.7 0
    endloop
  endfacet
  facet normal 0 -1 0
    outer loop
      vertex 3.8 -36.7 2.6
      vertex 3.8 -36.7 0
      vertex 34.2 -36.7 0
    endloop
  endfacet
  facet normal 0 -1 0
    outer loop
      vertex 34.2 -36.7 2.6
      vertex 3.8 -36.7 2.6
      vertex 34.2 -36.7 0
    endloop
  endfacet
  facet normal 1 0 0
    outer loop
      vertex 34.2 -36.7 2.6
      vertex 34.2 -36.7 0
      vertex 34.2 37.1 0
    endloop
  endfacet
  facet normal 1 0 0
    outer loop
      vertex 34.2 37.1 2.6
      vertex 34.2 -36.7 2.6
      vertex 34.2 37.1 0
    endloop
  endfacet
  facet normal 0 1 0
    outer loop
      vertex 3.8 37.1 0
      vertex 3.8 37.1 2.6
      vertex 34.2 37.1 0
    endloop
  endfacet
  facet normal 0 1 0
    outer loop
      vertex 34.2 37.1 0
      vertex 3.8 37.1 2.6
      vertex 34.2 37.1 2.6
    endloop
  endfacet
  facet normal 1 0 0
    outer loop
      vertex 3.8 37.1 2.6
      vertex 3.8 37.1 0
      vertex 3.8 44.3 0
    endloop
  endfacet
  facet normal 1 0 0
    outer loop
      vertex 3.8 44.3 2.6
      vertex 3.8 37.1 2.6
      vertex 3.8 44.3 0
    endloop
  endfacet
  facet normal 0 1 0
    outer loop
      vertex -3.7 44.3 0
      vertex -3.7 44.3 2.6
      vertex 3.8 44.3 0
    endloop
  endfacet
  facet normal 0 1 0
    outer loop
      vertex 3.8 44.3 0
      vertex -3.7 44.3 2.6
      vertex 3.8 44.3 2.6
    endloop
  endfacet
  facet normal -1 0 0
    outer loop
      vertex -3.7 44.3 2.6
      vertex -3.7 44.3 0
      vertex -3.7 37.1 2.6
    endloop
  endfacet
  facet normal -1 0 0
    outer loop
      vertex -3.7 37.1 2.6
      vertex -3.7 44.3 0
      vertex -3.7 37.1 0
    endloop
  endfacet
  facet normal 0 0 1
    outer loop
      vertex -3.7 44.3 2.6
      vertex -3.7 37.1 2.6
      vertex 3.8 37.1 2.6
    endloop
  endfacet
  facet normal 0 0 1
    outer loop
      vertex 3.8 44.3 2.6
      vertex -3.7 44.3 2.6
      vertex 3.8 37.1 2.6
    endloop
  endfacet
  facet normal 0 1 0
    outer loop
      vertex -3.7 37.1 2.6
      vertex -3.7 37.1 5.6
      vertex 3.8 37.1 2.6
    endloop
  endfacet
  facet normal 0 1 0
    outer loop
      vertex 3.8 37.1 2.6
      vertex -3.7 37.1 5.6
      vertex 3.8 37.1 5.6
    endloop
  endfacet
  facet normal 1 0 0
    outer loop
      vertex 3.8 -36.7 5.6
      vertex 3.8 -36.7 2.6
      vertex 3.8 37.1 2.6
    endloop
  endfacet
  facet normal 1 0 0
    outer loop
      vertex 3.8 37.1 5.6
      vertex 3.8 -36.7 5.6
      vertex 3.8 37.1 2.6
    endloop
  endfacet
  facet normal 0 0 1
    outer loop
      vertex 3.8 37.1 2.6
      vertex 3.8 -36.7 2.6
      vertex 34.2 -36.7 2.6
    endloop
  endfacet
  facet normal 0 0 1
    outer loop
      vertex 34.2 37.1 2.6
      vertex 3.8 37.1 2.6
      vertex 34.2 -36.7 2.6
    endloop
  endfacet
  facet normal 0 0 1
    outer loop
      vertex -3.7 37.1 5.6
      vertex -3.7 -36.7 5.6
      vertex 3.8 -36.7 5.6
    endloop
  endfacet
  facet normal 0 0 1
    outer loop
      vertex 3.8 37.1 5.6
      vertex -3.7 37.1 5.6
      vertex 3.8 -36.7 5.6
    endloop
  endfacet
endsolid OpenSCAD_Model
