solid OpenSCAD_Model
  facet normal 0 -1 0
    outer loop
      vertex -3.06 -10.05 -0.99
      vertex 3.06 -10.05 -0.99
      vertex 3.06 -10.05 0.99
    endloop
  endfacet
  facet normal 0 -1 0
    outer loop
      vertex -3.06 -10.05 0.99
      vertex -3.06 -10.05 -0.99
      vertex 3.06 -10.05 0.99
    endloop
  endfacet
  facet normal -0.998398 -0.0565759 0
    outer loop
      vertex -3.06 -10.05 -0.99
      vertex -3.06 -10.05 0.99
      vertex -3.4 -4.05 -1.1
    endloop
  endfacet
  facet normal -0.998398 -0.0565759 0
    outer loop
      vertex -3.4 -4.05 -1.1
      vertex -3.06 -10.05 0.99
      vertex -3.4 -4.05 1.1
    endloop
  endfacet
  facet normal 0 -0.0183303 0.999832
    outer loop
      vertex -3.4 -4.05 1.1
      vertex -3.06 -10.05 0.99
      vertex 3.06 -10.05 0.99
    endloop
  endfacet
  facet normal 0 -0.0183303 0.999832
    outer loop
      vertex 3.4 -4.05 1.1
      vertex -3.4 -4.05 1.1
      vertex 3.06 -10.05 0.99
    endloop
  endfacet
  facet normal 0 -0.0183303 -0.999832
    outer loop
      vertex 3.4 -4.05 -1.1
      vertex 3.06 -10.05 -0.99
      vertex -3.4 -4.05 -1.1
    endloop
  endfacet
  facet normal 0 -0.0183303 -0.999832
    outer loop
      vertex -3.4 -4.05 -1.1
      vertex 3.06 -10.05 -0.99
      vertex -3.06 -10.05 -0.99
    endloop
  endfacet
  facet normal 0.998398 -0.0565759 0
    outer loop
      vertex 3.06 -10.05 -0.99
      vertex 3.4 -4.05 -1.1
      vertex 3.4 -4.05 1.1
    endloop
  endfacet
  facet normal 0.998398 -0.0565759 0
    outer loop
      vertex 3.06 -10.05 0.99
      vertex 3.06 -10.05 -0.99
      vertex 3.4 -4.05 1.1
    endloop
  endfacet
  facet normal -1 0 0
    outer loop
      vertex -3.4 -4.05 1.1
      vertex -3.4 2.05 1.1
      vertex -3.4 -4.05 -1.1
    endloop
  endfacet
  facet normal -1 0 0
    outer loop
      vertex -3.4 -4.05 -1.1
      vertex -3.4 2.05 1.1
      vertex -3.4 2.05 -1.1
    endloop
  endfacet
  facet normal 0 0 -1
    outer loop
      vertex -3.4 2.05 -1.1
      vertex 3.4 2.05 -1.1
      vertex -3.4 -4.05 -1.1
    endloop
  endfacet
  facet normal 0 0 -1
    outer loop
      vertex -3.4 -4.05 -1.1
      vertex 3.4 2.05 -1.1
      vertex 3.4 -4.05 -1.1
    endloop
  endfacet
  facet normal 0 0 1
    outer loop
      vertex -3.4 -4.05 1.1
      vertex 3.4 -4.05 1.1
      vertex 3.4 2.05 1.1
    endloop
  endfacet
  facet normal 0 0 1
    outer loop
      vertex -3.4 2.05 1.1
      vertex -3.4 -4.05 1.1
      vertex 3.4 2.05 1.1
    endloop
  endfacet
  facet normal 1 0 0
    outer loop
      vertex 3.4 -4.05 -1.1
      vertex 3.4 2.05 -1.1
      vertex 3.4 2.05 1.1
    endloop
  endfacet
  facet normal 1 0 0
    outer loop
      vertex 3.4 -4.05 1.1
      vertex 3.4 -4.05 -1.1
      vertex 3.4 2.05 1.1
    endloop
  endfacet
  facet normal 0 0.0137487 -0.999905
    outer loop
      vertex -3.06 10.05 -0.99
      vertex 3.06 10.05 -0.99
      vertex -3.4 2.05 -1.1
    endloop
  endfacet
  facet normal 0 0.0137487 -0.999905
    outer loop
      vertex -3.4 2.05 -1.1
      vertex 3.06 10.05 -0.99
      vertex 3.4 2.05 -1.1
    endloop
  endfacet
  facet normal -0.999098 0.0424617 0
    outer loop
      vertex -3.4 2.05 1.1
      vertex -3.06 10.05 0.99
      vertex -3.4 2.05 -1.1
    endloop
  endfacet
  facet normal -0.999098 0.0424617 0
    outer loop
      vertex -3.4 2.05 -1.1
      vertex -3.06 10.05 0.99
      vertex -3.06 10.05 -0.99
    endloop
  endfacet
  facet normal 0 0.0137487 0.999905
    outer loop
      vertex -3.4 2.05 1.1
      vertex 3.4 2.05 1.1
      vertex 3.06 10.05 0.99
    endloop
  endfacet
  facet normal 0 0.0137487 0.999905
    outer loop
      vertex -3.06 10.05 0.99
      vertex -3.4 2.05 1.1
      vertex 3.06 10.05 0.99
    endloop
  endfacet
  facet normal 0.999098 0.0424617 0
    outer loop
      vertex 3.06 10.05 -0.99
      vertex 3.06 10.05 0.99
      vertex 3.4 2.05 1.1
    endloop
  endfacet
  facet normal 0.999098 0.0424617 0
    outer loop
      vertex 3.4 2.05 -1.1
      vertex 3.06 10.05 -0.99
      vertex 3.4 2.05 1.1
    endloop
  endfacet
  facet normal 0 1 0
    outer loop
      vertex -3.06 10.05 0.99
      vertex 3.06 10.05 0.99
      vertex -3.06 10.05 -0.99
    endloop
  endfacet
  facet normal 0 1 0
    outer loop
      vertex -3.06 10.05 -0.99
      vertex 3.06 10.05 0.99
      vertex 3.06 10.05 -0.99
    endloop
  endfacet
endsolid OpenSCAD_Model
