solid OpenSCAD_Model
  facet normal -1 0 0
    outer loop
      vertex -34.5 6.8 3
      vertex -34.5 6.8 0
      vertex -34.5 3.2 3
    endloop
  endfacet
  facet normal -1 0 0
    outer loop
      vertex -34.5 3.2 3
      vertex -34.5 6.8 0
      vertex -34.5 3.2 0
    endloop
  endfacet
  facet normal 0 -1 0
    outer loop
      vertex -34.5 3.2 3
      vertex -34.5 3.2 0
      vertex -31.8 3.2 0
    endloop
  endfacet
  facet normal 0 -1 0
    outer loop
      vertex -31.8 3.2 3
      vertex -34.5 3.2 3
      vertex -31.8 3.2 0
    endloop
  endfacet
  facet normal 0 0 -1
    outer loop
      vertex -34.5 3.2 0
      vertex -34.5 6.8 0
      vertex -31.8 3.2 0
    endloop
  endfacet
  facet normal 0 0 -1
    outer loop
      vertex -31.8 3.2 0
      vertex -34.5 6.8 0
      vertex -31.8 6.8 0
    endloop
  endfacet
  facet normal 0 0 -1
    outer loop
      vertex -31.8 6.8 0
      vertex -18.6 94.9 0
      vertex -31.8 3.2 0
    endloop
  endfacet
  facet normal 0 0 -1
    outer loop
      vertex -31.8 10.2 0
      vertex -34.5 10.2 0
      vertex -34.5 84.7 0
    endloop
  endfacet
  facet normal 0 0 -1
    outer loop
      vertex -31.8 10.2 0
      vertex -34.5 84.7 0
      vertex -31.8 84.7 0
    endloop
  endfacet
  facet normal 0 0 -1
    outer loop
      vertex -31.8 10.2 0
      vertex -18.6 94.9 0
      vertex -31.8 6.8 0
    endloop
  endfacet
  facet normal 0 0 -1
    outer loop
      vertex -31.8 84.7 0
      vertex -18.6 94.9 0
      vertex -31.8 10.2 0
    endloop
  endfacet
  facet normal 0 0 -1
    outer loop
      vertex -31.8 88.1 0
      vertex -34.5 88.1 0
      vertex -34.5 91.7 0
    endloop
  endfacet
  facet normal 0 0 -1
    outer loop
      vertex -31.8 88.1 0
      vertex -34.5 91.7 0
      vertex -31.8 91.7 0
    endloop
  endfacet
  facet normal 0 0 -1
    outer loop
      vertex -31.8 88.1 0
      vertex -18.6 94.9 0
      vertex -31.8 84.7 0
    endloop
  endfacet
  facet normal 0 0 -1
    outer loop
      vertex -31.8 91.7 0
      vertex -31.8 94.9 0
      vertex -18.6 94.9 0
    endloop
  endfacet
  facet normal 0 0 -1
    outer loop
      vertex -31.8 91.7 0
      vertex -18.6 94.9 0
      vertex -31.8 88.1 0
    endloop
  endfacet
  facet normal 0 0 -1
    outer loop
      vertex -31.8 3.2 0
      vertex -18.6 94.9 0
      vertex -18.6 91.9 0
    endloop
  endfacet
  facet normal 0 0 -1
    outer loop
      vertex -18.6 88.1 0
      vertex -18.6 91.9 0
      vertex 18.7 91.9 0
    endloop
  endfacet
  facet normal 0 0 -1
    outer loop
      vertex 18.7 91.9 0
      vertex 18.7 94.9 0
      vertex 31.9 94.9 0
    endloop
  endfacet
  facet normal 0 0 -1
    outer loop
      vertex 18.7 84.9 0
      vertex 31.9 94.9 0
      vertex -31.8 3.2 0
    endloop
  endfacet
  facet normal 0 0 -1
    outer loop
      vertex -31.8 3.2 0
      vertex 31.9 94.9 0
      vertex 31.9 91.7 0
    endloop
  endfacet
  facet normal 0 0 -1
    outer loop
      vertex -31.8 3.2 0
      vertex 31.9 91.7 0
      vertex 34.6 91.7 0
    endloop
  endfacet
  facet normal 0 0 -1
    outer loop
      vertex 31.9 88.1 0
      vertex 34.6 91.7 0
      vertex 34.6 88.1 0
    endloop
  endfacet
  facet normal 0 0 -1
    outer loop
      vertex -31.8 3.2 0
      vertex 34.6 91.7 0
      vertex 31.9 88.1 0
    endloop
  endfacet
  facet normal 0 0 -1
    outer loop
      vertex -31.8 3.2 0
      vertex 31.9 88.1 0
      vertex 31.9 84.7 0
    endloop
  endfacet
  facet normal 0 0 -1
    outer loop
      vertex 18.7 10 0
      vertex 31.9 10.2 0
      vertex 18.7 6.8 0
    endloop
  endfacet
  facet normal 0 0 -1
    outer loop
      vertex 31.9 10.2 0
      vertex 34.6 84.7 0
      vertex 34.6 10.2 0
    endloop
  endfacet
  facet normal 0 0 -1
    outer loop
      vertex -18.6 10 0
      vertex 34.6 84.7 0
      vertex 31.9 10.2 0
    endloop
  endfacet
  facet normal 0 0 -1
    outer loop
      vertex 18.7 3 0
      vertex 31.9 0 0
      vertex 18.7 0 0
    endloop
  endfacet
  facet normal 0 0 -1
    outer loop
      vertex -31.8 3.2 0
      vertex 31.9 6.8 0
      vertex 34.6 6.8 0
    endloop
  endfacet
  facet normal 0 0 -1
    outer loop
      vertex 31.9 3.2 0
      vertex 34.6 6.8 0
      vertex 34.6 3.2 0
    endloop
  endfacet
  facet normal 0 0 -1
    outer loop
      vertex -31.8 3.2 0
      vertex 34.6 6.8 0
      vertex 31.9 3.2 0
    endloop
  endfacet
  facet normal 0 0 -1
    outer loop
      vertex 34.6 84.7 0
      vertex -31.8 3.2 0
      vertex 31.9 84.7 0
    endloop
  endfacet
  facet normal 0 0 -1
    outer loop
      vertex 31.9 3.2 0
      vertex 31.9 0 0
      vertex 18.7 3 0
    endloop
  endfacet
  facet normal 0 0 -1
    outer loop
      vertex 31.9 3.2 0
      vertex 18.7 3 0
      vertex -31.8 3.2 0
    endloop
  endfacet
  facet normal 0 0 -1
    outer loop
      vertex -18.6 0 0
      vertex -31.8 3.2 0
      vertex -18.6 3 0
    endloop
  endfacet
  facet normal 0 0 -1
    outer loop
      vertex 18.7 3 0
      vertex -18.6 3 0
      vertex -31.8 3.2 0
    endloop
  endfacet
  facet normal 0 0 -1
    outer loop
      vertex 31.9 6.8 0
      vertex 18.7 6.8 0
      vertex 31.9 10.2 0
    endloop
  endfacet
  facet normal 0 0 -1
    outer loop
      vertex -31.8 3.2 0
      vertex 34.6 84.7 0
      vertex -18.6 10 0
    endloop
  endfacet
  facet normal 0 0 -1
    outer loop
      vertex -7.1 10 0
      vertex -18.6 10 0
      vertex 31.9 10.2 0
    endloop
  endfacet
  facet normal 0 0 -1
    outer loop
      vertex -31.8 3.2 0
      vertex -18.6 10 0
      vertex -18.6 6.8 0
    endloop
  endfacet
  facet normal 0 0 -1
    outer loop
      vertex -31.8 3.2 0
      vertex -18.6 6.8 0
      vertex -7.1 6.8 0
    endloop
  endfacet
  facet normal 0 0 -1
    outer loop
      vertex 7.2 10 0
      vertex -7.1 10 0
      vertex 31.9 10.2 0
    endloop
  endfacet
  facet normal 0 0 -1
    outer loop
      vertex -31.8 3.2 0
      vertex -18.6 91.9 0
      vertex -18.6 88.1 0
    endloop
  endfacet
  facet normal 0 0 -1
    outer loop
      vertex -7.1 88.1 0
      vertex -18.6 88.1 0
      vertex 18.7 91.9 0
    endloop
  endfacet
  facet normal 0 0 -1
    outer loop
      vertex -31.8 3.2 0
      vertex -18.6 88.1 0
      vertex -18.6 84.9 0
    endloop
  endfacet
  facet normal 0 0 -1
    outer loop
      vertex 7.2 6.8 0
      vertex -7.1 6.8 0
      vertex 7.2 10 0
    endloop
  endfacet
  facet normal 0 0 -1
    outer loop
      vertex -31.8 3.2 0
      vertex -18.6 84.9 0
      vertex -7.1 84.9 0
    endloop
  endfacet
  facet normal 0 0 -1
    outer loop
      vertex 7.2 88.1 0
      vertex -7.1 84.9 0
      vertex 18.7 91.9 0
    endloop
  endfacet
  facet normal 0 0 -1
    outer loop
      vertex 7.2 6.8 0
      vertex -31.8 3.2 0
      vertex -7.1 6.8 0
    endloop
  endfacet
  facet normal 0 0 -1
    outer loop
      vertex -7.1 88.1 0
      vertex 18.7 91.9 0
      vertex -7.1 84.9 0
    endloop
  endfacet
  facet normal 0 0 -1
    outer loop
      vertex 18.7 10 0
      vertex 7.2 10 0
      vertex 31.9 10.2 0
    endloop
  endfacet
  facet normal 0 0 -1
    outer loop
      vertex -31.8 3.2 0
      vertex 18.7 6.8 0
      vertex 31.9 6.8 0
    endloop
  endfacet
  facet normal 0 0 -1
    outer loop
      vertex 7.2 6.8 0
      vertex 18.7 6.8 0
      vertex -31.8 3.2 0
    endloop
  endfacet
  facet normal 0 0 -1
    outer loop
      vertex 7.2 88.1 0
      vertex 18.7 91.9 0
      vertex 18.7 88.1 0
    endloop
  endfacet
  facet normal 0 0 -1
    outer loop
      vertex -31.8 3.2 0
      vertex -7.1 84.9 0
      vertex 7.2 88.1 0
    endloop
  endfacet
  facet normal 0 0 -1
    outer loop
      vertex 18.7 84.9 0
      vertex -31.8 3.2 0
      vertex 7.2 84.9 0
    endloop
  endfacet
  facet normal 0 0 -1
    outer loop
      vertex -31.8 3.2 0
      vertex 7.2 88.1 0
      vertex 7.2 84.9 0
    endloop
  endfacet
  facet normal 0 0 -1
    outer loop
      vertex 18.7 91.9 0
      vertex 31.9 94.9 0
      vertex 18.7 84.9 0
    endloop
  endfacet
  facet normal 0 0 -1
    outer loop
      vertex 18.7 91.9 0
      vertex 18.7 84.9 0
      vertex 18.7 88.1 0
    endloop
  endfacet
  facet normal 0 0 -1
    outer loop
      vertex -7.1 10 0
      vertex 7.2 10 0
      vertex -7.1 6.8 0
    endloop
  endfacet
  facet normal 0 0 -1
    outer loop
      vertex -31.8 3.2 0
      vertex -18.6 0 0
      vertex -31.8 0 0
    endloop
  endfacet
  facet normal 0 0 1
    outer loop
      vertex -18.6 3 3
      vertex 18.7 3 3
      vertex -34.5 6.8 3
    endloop
  endfacet
  facet normal 0 0 1
    outer loop
      vertex -34.5 6.8 3
      vertex -34.5 3.2 3
      vertex -31.8 3.2 3
    endloop
  endfacet
  facet normal 0 0 1
    outer loop
      vertex -18.6 0 3
      vertex -34.5 6.8 3
      vertex -31.8 3.2 3
    endloop
  endfacet
  facet normal 0 0 1
    outer loop
      vertex -31.8 0 3
      vertex -18.6 0 3
      vertex -31.8 3.2 3
    endloop
  endfacet
  facet normal 0 0 1
    outer loop
      vertex -18.6 0 3
      vertex -18.6 3 3
      vertex -34.5 6.8 3
    endloop
  endfacet
  facet normal 0 0 1
    outer loop
      vertex 18.7 3 3
      vertex 31.9 3.2 3
      vertex -34.5 6.8 3
    endloop
  endfacet
  facet normal 0 0 1
    outer loop
      vertex 31.9 3.2 3
      vertex 34.6 3.2 3
      vertex -34.5 6.8 3
    endloop
  endfacet
  facet normal 0 0 1
    outer loop
      vertex 18.7 0 3
      vertex 31.9 0 3
      vertex 18.7 3 3
    endloop
  endfacet
  facet normal 0 0 1
    outer loop
      vertex 31.9 0 3
      vertex 31.9 3.2 3
      vertex 18.7 3 3
    endloop
  endfacet
  facet normal 0 0 1
    outer loop
      vertex -7.1 88.1 3
      vertex -7.1 84.9 3
      vertex 18.7 91.9 3
    endloop
  endfacet
  facet normal 0 0 1
    outer loop
      vertex 34.6 3.2 3
      vertex 31.9 6.8 3
      vertex 18.7 6.8 3
    endloop
  endfacet
  facet normal 0 0 1
    outer loop
      vertex 34.6 3.2 3
      vertex 34.6 6.8 3
      vertex 31.9 6.8 3
    endloop
  endfacet
  facet normal 0 0 1
    outer loop
      vertex -18.6 10 3
      vertex 31.9 10.2 3
      vertex 34.6 84.7 3
    endloop
  endfacet
  facet normal 0 0 1
    outer loop
      vertex 31.9 10.2 3
      vertex 34.6 10.2 3
      vertex 34.6 84.7 3
    endloop
  endfacet
  facet normal 0 0 1
    outer loop
      vertex 31.9 88.1 3
      vertex 34.6 88.1 3
      vertex 34.6 91.7 3
    endloop
  endfacet
  facet normal 0 0 1
    outer loop
      vertex -31.8 10.2 3
      vertex 31.9 88.1 3
      vertex 34.6 91.7 3
    endloop
  endfacet
  facet normal 0 0 1
    outer loop
      vertex -31.8 10.2 3
      vertex 34.6 91.7 3
      vertex 31.9 91.7 3
    endloop
  endfacet
  facet normal 0 0 1
    outer loop
      vertex 18.7 91.9 3
      vertex 31.9 94.9 3
      vertex 18.7 94.9 3
    endloop
  endfacet
  facet normal 0 0 1
    outer loop
      vertex 7.2 88.1 3
      vertex 18.7 88.1 3
      vertex 18.7 91.9 3
    endloop
  endfacet
  facet normal 0 0 1
    outer loop
      vertex 18.7 88.1 3
      vertex 31.9 94.9 3
      vertex 18.7 91.9 3
    endloop
  endfacet
  facet normal 0 0 1
    outer loop
      vertex -31.8 10.2 3
      vertex -31.8 6.8 3
      vertex -18.6 10 3
    endloop
  endfacet
  facet normal 0 0 1
    outer loop
      vertex -31.8 91.7 3
      vertex -18.6 94.9 3
      vertex -31.8 94.9 3
    endloop
  endfacet
  facet normal 0 0 1
    outer loop
      vertex -34.5 10.2 3
      vertex -7.1 84.9 3
      vertex -18.6 84.9 3
    endloop
  endfacet
  facet normal 0 0 1
    outer loop
      vertex -31.8 88.1 3
      vertex -18.6 94.9 3
      vertex -31.8 91.7 3
    endloop
  endfacet
  facet normal 0 0 1
    outer loop
      vertex -34.5 10.2 3
      vertex -18.6 94.9 3
      vertex -31.8 84.7 3
    endloop
  endfacet
  facet normal 0 0 1
    outer loop
      vertex -31.8 84.7 3
      vertex -18.6 94.9 3
      vertex -31.8 88.1 3
    endloop
  endfacet
  facet normal 0 0 1
    outer loop
      vertex -34.5 10.2 3
      vertex -18.6 91.9 3
      vertex -18.6 94.9 3
    endloop
  endfacet
  facet normal 0 0 1
    outer loop
      vertex -34.5 88.1 3
      vertex -31.8 88.1 3
      vertex -31.8 91.7 3
    endloop
  endfacet
  facet normal 0 0 1
    outer loop
      vertex 34.6 3.2 3
      vertex -31.8 6.8 3
      vertex -34.5 6.8 3
    endloop
  endfacet
  facet normal 0 0 1
    outer loop
      vertex 34.6 3.2 3
      vertex -18.6 6.8 3
      vertex -31.8 6.8 3
    endloop
  endfacet
  facet normal 0 0 1
    outer loop
      vertex -7.1 10 3
      vertex 31.9 10.2 3
      vertex -18.6 10 3
    endloop
  endfacet
  facet normal 0 0 1
    outer loop
      vertex -18.6 6.8 3
      vertex -18.6 10 3
      vertex -31.8 6.8 3
    endloop
  endfacet
  facet normal 0 0 1
    outer loop
      vertex 7.2 10 3
      vertex 31.9 10.2 3
      vertex -7.1 10 3
    endloop
  endfacet
  facet normal 0 0 1
    outer loop
      vertex 34.6 3.2 3
      vertex -7.1 6.8 3
      vertex -18.6 6.8 3
    endloop
  endfacet
  facet normal 0 0 1
    outer loop
      vertex 18.7 84.9 3
      vertex 7.2 84.9 3
      vertex -34.5 10.2 3
    endloop
  endfacet
  facet normal 0 0 1
    outer loop
      vertex -34.5 10.2 3
      vertex -18.6 84.9 3
      vertex -18.6 91.9 3
    endloop
  endfacet
  facet normal 0 0 1
    outer loop
      vertex -18.6 84.9 3
      vertex -18.6 88.1 3
      vertex -18.6 91.9 3
    endloop
  endfacet
  facet normal 0 0 1
    outer loop
      vertex -31.8 84.7 3
      vertex -34.5 84.7 3
      vertex -34.5 10.2 3
    endloop
  endfacet
  facet normal 0 0 1
    outer loop
      vertex 18.7 10 3
      vertex 18.7 6.8 3
      vertex 31.9 10.2 3
    endloop
  endfacet
  facet normal 0 0 1
    outer loop
      vertex -31.8 91.7 3
      vertex -34.5 91.7 3
      vertex -34.5 88.1 3
    endloop
  endfacet
  facet normal 0 0 1
    outer loop
      vertex 34.6 3.2 3
      vertex 7.2 6.8 3
      vertex -7.1 6.8 3
    endloop
  endfacet
  facet normal 0 0 1
    outer loop
      vertex 18.7 10 3
      vertex 31.9 10.2 3
      vertex 7.2 10 3
    endloop
  endfacet
  facet normal 0 0 1
    outer loop
      vertex 7.2 6.8 3
      vertex 7.2 10 3
      vertex -7.1 6.8 3
    endloop
  endfacet
  facet normal 0 0 1
    outer loop
      vertex 34.6 3.2 3
      vertex 18.7 6.8 3
      vertex 7.2 6.8 3
    endloop
  endfacet
  facet normal 0 0 1
    outer loop
      vertex 31.9 6.8 3
      vertex 31.9 10.2 3
      vertex 18.7 6.8 3
    endloop
  endfacet
  facet normal 0 0 1
    outer loop
      vertex 7.2 84.9 3
      vertex 7.2 88.1 3
      vertex -7.1 84.9 3
    endloop
  endfacet
  facet normal 0 0 1
    outer loop
      vertex -34.5 10.2 3
      vertex 7.2 84.9 3
      vertex -7.1 84.9 3
    endloop
  endfacet
  facet normal 0 0 1
    outer loop
      vertex -31.8 10.2 3
      vertex -18.6 10 3
      vertex 34.6 84.7 3
    endloop
  endfacet
  facet normal 0 0 1
    outer loop
      vertex 18.7 84.9 3
      vertex 31.9 94.9 3
      vertex 18.7 88.1 3
    endloop
  endfacet
  facet normal 0 0 1
    outer loop
      vertex -31.8 10.2 3
      vertex 34.6 84.7 3
      vertex 31.9 84.7 3
    endloop
  endfacet
  facet normal 0 0 1
    outer loop
      vertex -31.8 10.2 3
      vertex 31.9 84.7 3
      vertex 31.9 88.1 3
    endloop
  endfacet
  facet normal 0 0 1
    outer loop
      vertex -7.1 10 3
      vertex -7.1 6.8 3
      vertex 7.2 10 3
    endloop
  endfacet
  facet normal 0 0 1
    outer loop
      vertex 18.7 91.9 3
      vertex -7.1 84.9 3
      vertex 7.2 88.1 3
    endloop
  endfacet
  facet normal 0 0 1
    outer loop
      vertex 18.7 91.9 3
      vertex -18.6 88.1 3
      vertex -7.1 88.1 3
    endloop
  endfacet
  facet normal 0 0 1
    outer loop
      vertex 18.7 91.9 3
      vertex -18.6 91.9 3
      vertex -18.6 88.1 3
    endloop
  endfacet
  facet normal 0 0 1
    outer loop
      vertex -34.5 10.2 3
      vertex 31.9 94.9 3
      vertex 18.7 84.9 3
    endloop
  endfacet
  facet normal 0 0 1
    outer loop
      vertex -34.5 10.2 3
      vertex 31.9 91.7 3
      vertex 31.9 94.9 3
    endloop
  endfacet
  facet normal 0 0 1
    outer loop
      vertex -34.5 10.2 3
      vertex -31.8 10.2 3
      vertex 31.9 91.7 3
    endloop
  endfacet
  facet normal 0 1 0
    outer loop
      vertex -34.5 6.8 0
      vertex -34.5 6.8 3
      vertex -31.8 6.8 0
    endloop
  endfacet
  facet normal 0 1 0
    outer loop
      vertex -31.8 6.8 0
      vertex -34.5 6.8 3
      vertex -31.8 6.8 3
    endloop
  endfacet
  facet normal -1 0 0
    outer loop
      vertex -31.8 0 0
      vertex -31.8 0 3
      vertex -31.8 3.2 0
    endloop
  endfacet
  facet normal -1 0 0
    outer loop
      vertex -31.8 3.2 0
      vertex -31.8 0 3
      vertex -31.8 3.2 3
    endloop
  endfacet
  facet normal 0 -1 0
    outer loop
      vertex -18.6 0 0
      vertex -18.6 0 3
      vertex -31.8 0 3
    endloop
  endfacet
  facet normal 0 -1 0
    outer loop
      vertex -31.8 0 0
      vertex -18.6 0 0
      vertex -31.8 0 3
    endloop
  endfacet
  facet normal 1 0 0
    outer loop
      vertex -18.6 0 3
      vertex -18.6 0 0
      vertex -18.6 3 0
    endloop
  endfacet
  facet normal 1 0 0
    outer loop
      vertex -18.6 3 3
      vertex -18.6 0 3
      vertex -18.6 3 0
    endloop
  endfacet
  facet normal 0 -1 0
    outer loop
      vertex 18.7 3 0
      vertex 18.7 3 3
      vertex -18.6 3 3
    endloop
  endfacet
  facet normal 0 -1 0
    outer loop
      vertex -18.6 3 0
      vertex 18.7 3 0
      vertex -18.6 3 3
    endloop
  endfacet
  facet normal -1 0 0
    outer loop
      vertex 18.7 3 3
      vertex 18.7 3 0
      vertex 18.7 0 3
    endloop
  endfacet
  facet normal -1 0 0
    outer loop
      vertex 18.7 0 3
      vertex 18.7 3 0
      vertex 18.7 0 0
    endloop
  endfacet
  facet normal 0 -1 0
    outer loop
      vertex 18.7 0 3
      vertex 18.7 0 0
      vertex 31.9 0 0
    endloop
  endfacet
  facet normal 0 -1 0
    outer loop
      vertex 31.9 0 3
      vertex 18.7 0 3
      vertex 31.9 0 0
    endloop
  endfacet
  facet normal 1 0 0
    outer loop
      vertex 31.9 3.2 0
      vertex 31.9 3.2 3
      vertex 31.9 0 3
    endloop
  endfacet
  facet normal 1 0 0
    outer loop
      vertex 31.9 0 0
      vertex 31.9 3.2 0
      vertex 31.9 0 3
    endloop
  endfacet
  facet normal 0 -1 0
    outer loop
      vertex 34.6 3.2 0
      vertex 34.6 3.2 3
      vertex 31.9 3.2 3
    endloop
  endfacet
  facet normal 0 -1 0
    outer loop
      vertex 31.9 3.2 0
      vertex 34.6 3.2 0
      vertex 31.9 3.2 3
    endloop
  endfacet
  facet normal 1 0 0
    outer loop
      vertex 34.6 3.2 3
      vertex 34.6 3.2 0
      vertex 34.6 6.8 0
    endloop
  endfacet
  facet normal 1 0 0
    outer loop
      vertex 34.6 6.8 3
      vertex 34.6 3.2 3
      vertex 34.6 6.8 0
    endloop
  endfacet
  facet normal 0 1 0
    outer loop
      vertex 34.6 6.8 3
      vertex 34.6 6.8 0
      vertex 31.9 6.8 3
    endloop
  endfacet
  facet normal 0 1 0
    outer loop
      vertex 31.9 6.8 3
      vertex 34.6 6.8 0
      vertex 31.9 6.8 0
    endloop
  endfacet
  facet normal 1 0 0
    outer loop
      vertex 31.9 10.2 0
      vertex 31.9 10.2 3
      vertex 31.9 6.8 3
    endloop
  endfacet
  facet normal 1 0 0
    outer loop
      vertex 31.9 6.8 0
      vertex 31.9 10.2 0
      vertex 31.9 6.8 3
    endloop
  endfacet
  facet normal 0 -1 0
    outer loop
      vertex 34.6 10.2 0
      vertex 34.6 10.2 3
      vertex 31.9 10.2 3
    endloop
  endfacet
  facet normal 0 -1 0
    outer loop
      vertex 31.9 10.2 0
      vertex 34.6 10.2 0
      vertex 31.9 10.2 3
    endloop
  endfacet
  facet normal 1 0 0
    outer loop
      vertex 34.6 10.2 3
      vertex 34.6 10.2 0
      vertex 34.6 84.7 0
    endloop
  endfacet
  facet normal 1 0 0
    outer loop
      vertex 34.6 84.7 3
      vertex 34.6 10.2 3
      vertex 34.6 84.7 0
    endloop
  endfacet
  facet normal 0 1 0
    outer loop
      vertex 31.9 84.7 0
      vertex 31.9 84.7 3
      vertex 34.6 84.7 0
    endloop
  endfacet
  facet normal 0 1 0
    outer loop
      vertex 34.6 84.7 0
      vertex 31.9 84.7 3
      vertex 34.6 84.7 3
    endloop
  endfacet
  facet normal 1 0 0
    outer loop
      vertex 31.9 84.7 3
      vertex 31.9 84.7 0
      vertex 31.9 88.1 0
    endloop
  endfacet
  facet normal 1 0 0
    outer loop
      vertex 31.9 88.1 3
      vertex 31.9 84.7 3
      vertex 31.9 88.1 0
    endloop
  endfacet
  facet normal 0 -1 0
    outer loop
      vertex 31.9 88.1 3
      vertex 31.9 88.1 0
      vertex 34.6 88.1 0
    endloop
  endfacet
  facet normal 0 -1 0
    outer loop
      vertex 34.6 88.1 3
      vertex 31.9 88.1 3
      vertex 34.6 88.1 0
    endloop
  endfacet
  facet normal 1 0 0
    outer loop
      vertex 34.6 91.7 0
      vertex 34.6 91.7 3
      vertex 34.6 88.1 3
    endloop
  endfacet
  facet normal 1 0 0
    outer loop
      vertex 34.6 88.1 0
      vertex 34.6 91.7 0
      vertex 34.6 88.1 3
    endloop
  endfacet
  facet normal 0 1 0
    outer loop
      vertex 31.9 91.7 0
      vertex 31.9 91.7 3
      vertex 34.6 91.7 0
    endloop
  endfacet
  facet normal 0 1 0
    outer loop
      vertex 34.6 91.7 0
      vertex 31.9 91.7 3
      vertex 34.6 91.7 3
    endloop
  endfacet
  facet normal 1 0 0
    outer loop
      vertex 31.9 91.7 3
      vertex 31.9 91.7 0
      vertex 31.9 94.9 0
    endloop
  endfacet
  facet normal 1 0 0
    outer loop
      vertex 31.9 94.9 3
      vertex 31.9 91.7 3
      vertex 31.9 94.9 0
    endloop
  endfacet
  facet normal 0 1 0
    outer loop
      vertex 31.9 94.9 3
      vertex 31.9 94.9 0
      vertex 18.7 94.9 3
    endloop
  endfacet
  facet normal 0 1 0
    outer loop
      vertex 18.7 94.9 3
      vertex 31.9 94.9 0
      vertex 18.7 94.9 0
    endloop
  endfacet
  facet normal -1 0 0
    outer loop
      vertex 18.7 91.9 0
      vertex 18.7 91.9 3
      vertex 18.7 94.9 0
    endloop
  endfacet
  facet normal -1 0 0
    outer loop
      vertex 18.7 94.9 0
      vertex 18.7 91.9 3
      vertex 18.7 94.9 3
    endloop
  endfacet
  facet normal 0 1 0
    outer loop
      vertex -18.6 91.9 0
      vertex -18.6 91.9 3
      vertex 18.7 91.9 0
    endloop
  endfacet
  facet normal 0 1 0
    outer loop
      vertex 18.7 91.9 0
      vertex -18.6 91.9 3
      vertex 18.7 91.9 3
    endloop
  endfacet
  facet normal 1 0 0
    outer loop
      vertex -18.6 94.9 0
      vertex -18.6 94.9 3
      vertex -18.6 91.9 3
    endloop
  endfacet
  facet normal 1 0 0
    outer loop
      vertex -18.6 91.9 0
      vertex -18.6 94.9 0
      vertex -18.6 91.9 3
    endloop
  endfacet
  facet normal 0 1 0
    outer loop
      vertex -31.8 94.9 0
      vertex -31.8 94.9 3
      vertex -18.6 94.9 0
    endloop
  endfacet
  facet normal 0 1 0
    outer loop
      vertex -18.6 94.9 0
      vertex -31.8 94.9 3
      vertex -18.6 94.9 3
    endloop
  endfacet
  facet normal -1 0 0
    outer loop
      vertex -31.8 94.9 3
      vertex -31.8 94.9 0
      vertex -31.8 91.7 3
    endloop
  endfacet
  facet normal -1 0 0
    outer loop
      vertex -31.8 91.7 3
      vertex -31.8 94.9 0
      vertex -31.8 91.7 0
    endloop
  endfacet
  facet normal 0 1 0
    outer loop
      vertex -31.8 91.7 3
      vertex -31.8 91.7 0
      vertex -34.5 91.7 3
    endloop
  endfacet
  facet normal 0 1 0
    outer loop
      vertex -34.5 91.7 3
      vertex -31.8 91.7 0
      vertex -34.5 91.7 0
    endloop
  endfacet
  facet normal -1 0 0
    outer loop
      vertex -34.5 88.1 0
      vertex -34.5 88.1 3
      vertex -34.5 91.7 0
    endloop
  endfacet
  facet normal -1 0 0
    outer loop
      vertex -34.5 91.7 0
      vertex -34.5 88.1 3
      vertex -34.5 91.7 3
    endloop
  endfacet
  facet normal 0 -1 0
    outer loop
      vertex -31.8 88.1 0
      vertex -31.8 88.1 3
      vertex -34.5 88.1 3
    endloop
  endfacet
  facet normal 0 -1 0
    outer loop
      vertex -34.5 88.1 0
      vertex -31.8 88.1 0
      vertex -34.5 88.1 3
    endloop
  endfacet
  facet normal -1 0 0
    outer loop
      vertex -31.8 88.1 3
      vertex -31.8 88.1 0
      vertex -31.8 84.7 3
    endloop
  endfacet
  facet normal -1 0 0
    outer loop
      vertex -31.8 84.7 3
      vertex -31.8 88.1 0
      vertex -31.8 84.7 0
    endloop
  endfacet
  facet normal 0 1 0
    outer loop
      vertex -31.8 84.7 3
      vertex -31.8 84.7 0
      vertex -34.5 84.7 3
    endloop
  endfacet
  facet normal 0 1 0
    outer loop
      vertex -34.5 84.7 3
      vertex -31.8 84.7 0
      vertex -34.5 84.7 0
    endloop
  endfacet
  facet normal -1 0 0
    outer loop
      vertex -34.5 84.7 3
      vertex -34.5 84.7 0
      vertex -34.5 10.2 3
    endloop
  endfacet
  facet normal -1 0 0
    outer loop
      vertex -34.5 10.2 3
      vertex -34.5 84.7 0
      vertex -34.5 10.2 0
    endloop
  endfacet
  facet normal 0 -1 0
    outer loop
      vertex -34.5 10.2 3
      vertex -34.5 10.2 0
      vertex -31.8 10.2 0
    endloop
  endfacet
  facet normal 0 -1 0
    outer loop
      vertex -31.8 10.2 3
      vertex -34.5 10.2 3
      vertex -31.8 10.2 0
    endloop
  endfacet
  facet normal -1 0 0
    outer loop
      vertex -31.8 6.8 0
      vertex -31.8 6.8 3
      vertex -31.8 10.2 0
    endloop
  endfacet
  facet normal -1 0 0
    outer loop
      vertex -31.8 10.2 0
      vertex -31.8 6.8 3
      vertex -31.8 10.2 3
    endloop
  endfacet
  facet normal 0 -1 0
    outer loop
      vertex -18.6 10 3
      vertex -18.6 10 0
      vertex -7.1 10 0
    endloop
  endfacet
  facet normal 0 -1 0
    outer loop
      vertex -7.1 10 3
      vertex -18.6 10 3
      vertex -7.1 10 0
    endloop
  endfacet
  facet normal 1 0 0
    outer loop
      vertex -18.6 6.8 3
      vertex -18.6 6.8 0
      vertex -18.6 10 0
    endloop
  endfacet
  facet normal 1 0 0
    outer loop
      vertex -18.6 10 3
      vertex -18.6 6.8 3
      vertex -18.6 10 0
    endloop
  endfacet
  facet normal -1 0 0
    outer loop
      vertex -7.1 6.8 0
      vertex -7.1 6.8 3
      vertex -7.1 10 0
    endloop
  endfacet
  facet normal -1 0 0
    outer loop
      vertex -7.1 10 0
      vertex -7.1 6.8 3
      vertex -7.1 10 3
    endloop
  endfacet
  facet normal 0 1 0
    outer loop
      vertex -18.6 6.8 0
      vertex -18.6 6.8 3
      vertex -7.1 6.8 0
    endloop
  endfacet
  facet normal 0 1 0
    outer loop
      vertex -7.1 6.8 0
      vertex -18.6 6.8 3
      vertex -7.1 6.8 3
    endloop
  endfacet
  facet normal 1 0 0
    outer loop
      vertex -18.6 88.1 0
      vertex -18.6 88.1 3
      vertex -18.6 84.9 3
    endloop
  endfacet
  facet normal 1 0 0
    outer loop
      vertex -18.6 84.9 0
      vertex -18.6 88.1 0
      vertex -18.6 84.9 3
    endloop
  endfacet
  facet normal 0 -1 0
    outer loop
      vertex -7.1 88.1 0
      vertex -7.1 88.1 3
      vertex -18.6 88.1 3
    endloop
  endfacet
  facet normal 0 -1 0
    outer loop
      vertex -18.6 88.1 0
      vertex -7.1 88.1 0
      vertex -18.6 88.1 3
    endloop
  endfacet
  facet normal -1 0 0
    outer loop
      vertex -7.1 88.1 3
      vertex -7.1 88.1 0
      vertex -7.1 84.9 3
    endloop
  endfacet
  facet normal -1 0 0
    outer loop
      vertex -7.1 84.9 3
      vertex -7.1 88.1 0
      vertex -7.1 84.9 0
    endloop
  endfacet
  facet normal 0 1 0
    outer loop
      vertex -7.1 84.9 3
      vertex -7.1 84.9 0
      vertex -18.6 84.9 3
    endloop
  endfacet
  facet normal 0 1 0
    outer loop
      vertex -18.6 84.9 3
      vertex -7.1 84.9 0
      vertex -18.6 84.9 0
    endloop
  endfacet
  facet normal 1 0 0
    outer loop
      vertex 7.2 10 0
      vertex 7.2 10 3
      vertex 7.2 6.8 3
    endloop
  endfacet
  facet normal 1 0 0
    outer loop
      vertex 7.2 6.8 0
      vertex 7.2 10 0
      vertex 7.2 6.8 3
    endloop
  endfacet
  facet normal 0 -1 0
    outer loop
      vertex 18.7 10 0
      vertex 18.7 10 3
      vertex 7.2 10 3
    endloop
  endfacet
  facet normal 0 -1 0
    outer loop
      vertex 7.2 10 0
      vertex 18.7 10 0
      vertex 7.2 10 3
    endloop
  endfacet
  facet normal -1 0 0
    outer loop
      vertex 18.7 10 3
      vertex 18.7 10 0
      vertex 18.7 6.8 3
    endloop
  endfacet
  facet normal -1 0 0
    outer loop
      vertex 18.7 6.8 3
      vertex 18.7 10 0
      vertex 18.7 6.8 0
    endloop
  endfacet
  facet normal 0 1 0
    outer loop
      vertex 18.7 6.8 3
      vertex 18.7 6.8 0
      vertex 7.2 6.8 3
    endloop
  endfacet
  facet normal 0 1 0
    outer loop
      vertex 7.2 6.8 3
      vertex 18.7 6.8 0
      vertex 7.2 6.8 0
    endloop
  endfacet
  facet normal 1 0 0
    outer loop
      vertex 7.2 84.9 3
      vertex 7.2 84.9 0
      vertex 7.2 88.1 0
    endloop
  endfacet
  facet normal 1 0 0
    outer loop
      vertex 7.2 88.1 3
      vertex 7.2 84.9 3
      vertex 7.2 88.1 0
    endloop
  endfacet
  facet normal 0 -1 0
    outer loop
      vertex 7.2 88.1 3
      vertex 7.2 88.1 0
      vertex 18.7 88.1 0
    endloop
  endfacet
  facet normal 0 -1 0
    outer loop
      vertex 18.7 88.1 3
      vertex 7.2 88.1 3
      vertex 18.7 88.1 0
    endloop
  endfacet
  facet normal -1 0 0
    outer loop
      vertex 18.7 84.9 0
      vertex 18.7 84.9 3
      vertex 18.7 88.1 0
    endloop
  endfacet
  facet normal -1 0 0
    outer loop
      vertex 18.7 88.1 0
      vertex 18.7 84.9 3
      vertex 18.7 88.1 3
    endloop
  endfacet
  facet normal 0 1 0
    outer loop
      vertex 7.2 84.9 0
      vertex 7.2 84.9 3
      vertex 18.7 84.9 0
    endloop
  endfacet
  facet normal 0 1 0
    outer loop
      vertex 18.7 84.9 0
      vertex 7.2 84.9 3
      vertex 18.7 84.9 3
    endloop
  endfacet
endsolid OpenSCAD_Model
