solid OpenSCAD_Model
  facet normal -1 0 0
    outer loop
      vertex -34.1 116.4 2.6
      vertex -34.1 116.4 0
      vertex -34.1 7.6 2.6
    endloop
  endfacet
  facet normal -1 0 0
    outer loop
      vertex -34.1 7.6 2.6
      vertex -34.1 116.4 0
      vertex -34.1 7.6 0
    endloop
  endfacet
  facet normal 0 -1 0
    outer loop
      vertex -3.7 7.6 0
      vertex -3.7 7.6 2.6
      vertex -34.1 7.6 2.6
    endloop
  endfacet
  facet normal 0 -1 0
    outer loop
      vertex -34.1 7.6 0
      vertex -3.7 7.6 0
      vertex -34.1 7.6 2.6
    endloop
  endfacet
  facet normal 0 0 -1
    outer loop
      vertex -34.1 7.6 0
      vertex -34.1 116.4 0
      vertex -3.7 7.6 0
    endloop
  endfacet
  facet normal 0 0 -1
    outer loop
      vertex -3.7 7.6 0
      vertex -34.1 116.4 0
      vertex -3.7 116.4 0
    endloop
  endfacet
  facet normal 0 0 -1
    outer loop
      vertex -3.7 116.4 0
      vertex -3.7 123.6 0
      vertex 3.8 123.6 0
    endloop
  endfacet
  facet normal 0 0 -1
    outer loop
      vertex -3.7 116.4 0
      vertex 3.8 123.6 0
      vertex -3.7 7.6 0
    endloop
  endfacet
  facet normal 0 0 -1
    outer loop
      vertex -3.7 7.6 0
      vertex 3.8 123.6 0
      vertex 3.8 116.4 0
    endloop
  endfacet
  facet normal 0 0 -1
    outer loop
      vertex -3.7 7.6 0
      vertex 3.8 116.4 0
      vertex 34.2 116.4 0
    endloop
  endfacet
  facet normal 0 0 -1
    outer loop
      vertex 3.8 7.6 0
      vertex 34.2 116.4 0
      vertex 34.2 7.6 0
    endloop
  endfacet
  facet normal 0 0 -1
    outer loop
      vertex -3.7 7.6 0
      vertex 34.2 116.4 0
      vertex 3.8 7.6 0
    endloop
  endfacet
  facet normal 0 0 -1
    outer loop
      vertex 3.8 7.6 0
      vertex 3.8 0 0
      vertex -3.7 7.6 0
    endloop
  endfacet
  facet normal 0 0 -1
    outer loop
      vertex -3.7 7.6 0
      vertex 3.8 0 0
      vertex -3.7 0 0
    endloop
  endfacet
  facet normal 0 0 1
    outer loop
      vertex -3.7 7.6 2.6
      vertex -3.7 116.4 2.6
      vertex -34.1 116.4 2.6
    endloop
  endfacet
  facet normal 0 0 1
    outer loop
      vertex -34.1 7.6 2.6
      vertex -3.7 7.6 2.6
      vertex -34.1 116.4 2.6
    endloop
  endfacet
  facet normal 0 1 0
    outer loop
      vertex -3.7 116.4 2.6
      vertex -3.7 116.4 0
      vertex -34.1 116.4 2.6
    endloop
  endfacet
  facet normal 0 1 0
    outer loop
      vertex -34.1 116.4 2.6
      vertex -3.7 116.4 0
      vertex -34.1 116.4 0
    endloop
  endfacet
  facet normal -1 0 0
    outer loop
      vertex -3.7 7.6 2.6
      vertex -3.7 7.6 0
      vertex -3.7 0 2.6
    endloop
  endfacet
  facet normal -1 0 0
    outer loop
      vertex -3.7 0 2.6
      vertex -3.7 7.6 0
      vertex -3.7 0 0
    endloop
  endfacet
  facet normal 0 0 1
    outer loop
      vertex -3.7 7.6 2.6
      vertex -3.7 0 2.6
      vertex 3.8 0 2.6
    endloop
  endfacet
  facet normal 0 0 1
    outer loop
      vertex 3.8 7.6 2.6
      vertex -3.7 7.6 2.6
      vertex 3.8 0 2.6
    endloop
  endfacet
  facet normal -1 0 0
    outer loop
      vertex -3.7 116.4 5.6
      vertex -3.7 116.4 2.6
      vertex -3.7 7.6 5.6
    endloop
  endfacet
  facet normal -1 0 0
    outer loop
      vertex -3.7 7.6 5.6
      vertex -3.7 116.4 2.6
      vertex -3.7 7.6 2.6
    endloop
  endfacet
  facet normal 0 -1 0
    outer loop
      vertex -3.7 7.6 5.6
      vertex -3.7 7.6 2.6
      vertex 3.8 7.6 2.6
    endloop
  endfacet
  facet normal 0 -1 0
    outer loop
      vertex 3.8 7.6 5.6
      vertex -3.7 7.6 5.6
      vertex 3.8 7.6 2.6
    endloop
  endfacet
  facet normal 0 -1 0
    outer loop
      vertex -3.7 0 2.6
      vertex -3.7 0 0
      vertex 3.8 0 0
    endloop
  endfacet
  facet normal 0 -1 0
    outer loop
      vertex 3.8 0 2.6
      vertex -3.7 0 2.6
      vertex 3.8 0 0
    endloop
  endfacet
  facet normal 1 0 0
    outer loop
      vertex 3.8 0 2.6
      vertex 3.8 0 0
      vertex 3.8 7.6 0
    endloop
  endfacet
  facet normal 1 0 0
    outer loop
      vertex 3.8 7.6 2.6
      vertex 3.8 0 2.6
      vertex 3.8 7.6 0
    endloop
  endfacet
  facet normal 0 -1 0
    outer loop
      vertex 3.8 7.6 2.6
      vertex 3.8 7.6 0
      vertex 34.2 7.6 0
    endloop
  endfacet
  facet normal 0 -1 0
    outer loop
      vertex 34.2 7.6 2.6
      vertex 3.8 7.6 2.6
      vertex 34.2 7.6 0
    endloop
  endfacet
  facet normal 1 0 0
    outer loop
      vertex 34.2 7.6 2.6
      vertex 34.2 7.6 0
      vertex 34.2 116.4 0
    endloop
  endfacet
  facet normal 1 0 0
    outer loop
      vertex 34.2 116.4 2.6
      vertex 34.2 7.6 2.6
      vertex 34.2 116.4 0
    endloop
  endfacet
  facet normal 0 1 0
    outer loop
      vertex 3.8 116.4 0
      vertex 3.8 116.4 2.6
      vertex 34.2 116.4 0
    endloop
  endfacet
  facet normal 0 1 0
    outer loop
      vertex 34.2 116.4 0
      vertex 3.8 116.4 2.6
      vertex 34.2 116.4 2.6
    endloop
  endfacet
  facet normal 1 0 0
    outer loop
      vertex 3.8 116.4 2.6
      vertex 3.8 116.4 0
      vertex 3.8 123.6 0
    endloop
  endfacet
  facet normal 1 0 0
    outer loop
      vertex 3.8 123.6 2.6
      vertex 3.8 116.4 2.6
      vertex 3.8 123.6 0
    endloop
  endfacet
  facet normal 0 1 0
    outer loop
      vertex -3.7 123.6 0
      vertex -3.7 123.6 2.6
      vertex 3.8 123.6 0
    endloop
  endfacet
  facet normal 0 1 0
    outer loop
      vertex 3.8 123.6 0
      vertex -3.7 123.6 2.6
      vertex 3.8 123.6 2.6
    endloop
  endfacet
  facet normal -1 0 0
    outer loop
      vertex -3.7 123.6 2.6
      vertex -3.7 123.6 0
      vertex -3.7 116.4 2.6
    endloop
  endfacet
  facet normal -1 0 0
    outer loop
      vertex -3.7 116.4 2.6
      vertex -3.7 123.6 0
      vertex -3.7 116.4 0
    endloop
  endfacet
  facet normal 0 0 1
    outer loop
      vertex -3.7 123.6 2.6
      vertex -3.7 116.4 2.6
      vertex 3.8 116.4 2.6
    endloop
  endfacet
  facet normal 0 0 1
    outer loop
      vertex 3.8 123.6 2.6
      vertex -3.7 123.6 2.6
      vertex 3.8 116.4 2.6
    endloop
  endfacet
  facet normal 0 1 0
    outer loop
      vertex -3.7 116.4 2.6
      vertex -3.7 116.4 5.6
      vertex 3.8 116.4 2.6
    endloop
  endfacet
  facet normal 0 1 0
    outer loop
      vertex 3.8 116.4 2.6
      vertex -3.7 116.4 5.6
      vertex 3.8 116.4 5.6
    endloop
  endfacet
  facet normal 1 0 0
    outer loop
      vertex 3.8 7.6 5.6
      vertex 3.8 7.6 2.6
      vertex 3.8 116.4 2.6
    endloop
  endfacet
  facet normal 1 0 0
    outer loop
      vertex 3.8 116.4 5.6
      vertex 3.8 7.6 5.6
      vertex 3.8 116.4 2.6
    endloop
  endfacet
  facet normal 0 0 1
    outer loop
      vertex 3.8 116.4 2.6
      vertex 3.8 7.6 2.6
      vertex 34.2 7.6 2.6
    endloop
  endfacet
  facet normal 0 0 1
    outer loop
      vertex 34.2 116.4 2.6
      vertex 3.8 116.4 2.6
      vertex 34.2 7.6 2.6
    endloop
  endfacet
  facet normal 0 0 1
    outer loop
      vertex -3.7 116.4 5.6
      vertex -3.7 7.6 5.6
      vertex 3.8 7.6 5.6
    endloop
  endfacet
  facet normal 0 0 1
    outer loop
      vertex 3.8 116.4 5.6
      vertex -3.7 116.4 5.6
      vertex 3.8 7.6 5.6
    endloop
  endfacet
endsolid OpenSCAD_Model
