solid OpenSCAD_Model
  facet normal -1 0 0
    outer loop
      vertex -34.1 58 2.6
      vertex -34.1 58 0
      vertex -34.1 -50.8 2.6
    endloop
  endfacet
  facet normal -1 0 0
    outer loop
      vertex -34.1 -50.8 2.6
      vertex -34.1 58 0
      vertex -34.1 -50.8 0
    endloop
  endfacet
  facet normal 0 -1 0
    outer loop
      vertex -3.7 -50.8 0
      vertex -3.7 -50.8 2.6
      vertex -34.1 -50.8 2.6
    endloop
  endfacet
  facet normal 0 -1 0
    outer loop
      vertex -34.1 -50.8 0
      vertex -3.7 -50.8 0
      vertex -34.1 -50.8 2.6
    endloop
  endfacet
  facet normal 0 0 -1
    outer loop
      vertex -34.1 -50.8 0
      vertex -34.1 58 0
      vertex -3.7 -50.8 0
    endloop
  endfacet
  facet normal 0 0 -1
    outer loop
      vertex -3.7 -50.8 0
      vertex -34.1 58 0
      vertex -3.7 58 0
    endloop
  endfacet
  facet normal 0 0 -1
    outer loop
      vertex -3.7 58 0
      vertex -3.7 65.2 0
      vertex 3.8 65.2 0
    endloop
  endfacet
  facet normal 0 0 -1
    outer loop
      vertex -3.7 58 0
      vertex 3.8 65.2 0
      vertex -3.7 -50.8 0
    endloop
  endfacet
  facet normal 0 0 -1
    outer loop
      vertex -3.7 -50.8 0
      vertex 3.8 65.2 0
      vertex 3.8 58 0
    endloop
  endfacet
  facet normal 0 0 -1
    outer loop
      vertex -3.7 -50.8 0
      vertex 3.8 58 0
      vertex 34.2 58 0
    endloop
  endfacet
  facet normal 0 0 -1
    outer loop
      vertex 3.8 -50.8 0
      vertex 34.2 58 0
      vertex 34.2 -50.8 0
    endloop
  endfacet
  facet normal 0 0 -1
    outer loop
      vertex -3.7 -50.8 0
      vertex 34.2 58 0
      vertex 3.8 -50.8 0
    endloop
  endfacet
  facet normal 0 0 -1
    outer loop
      vertex 3.8 -50.8 0
      vertex 3.8 -58.4 0
      vertex -3.7 -50.8 0
    endloop
  endfacet
  facet normal 0 0 -1
    outer loop
      vertex -3.7 -50.8 0
      vertex 3.8 -58.4 0
      vertex -3.7 -58.4 0
    endloop
  endfacet
  facet normal 0 0 1
    outer loop
      vertex -3.7 -50.8 2.6
      vertex -3.7 58 2.6
      vertex -34.1 58 2.6
    endloop
  endfacet
  facet normal 0 0 1
    outer loop
      vertex -34.1 -50.8 2.6
      vertex -3.7 -50.8 2.6
      vertex -34.1 58 2.6
    endloop
  endfacet
  facet normal 0 1 0
    outer loop
      vertex -3.7 58 2.6
      vertex -3.7 58 0
      vertex -34.1 58 2.6
    endloop
  endfacet
  facet normal 0 1 0
    outer loop
      vertex -34.1 58 2.6
      vertex -3.7 58 0
      vertex -34.1 58 0
    endloop
  endfacet
  facet normal -1 0 0
    outer loop
      vertex -3.7 -50.8 2.6
      vertex -3.7 -50.8 0
      vertex -3.7 -58.4 2.6
    endloop
  endfacet
  facet normal -1 0 0
    outer loop
      vertex -3.7 -58.4 2.6
      vertex -3.7 -50.8 0
      vertex -3.7 -58.4 0
    endloop
  endfacet
  facet normal 0 0 1
    outer loop
      vertex -3.7 -50.8 2.6
      vertex -3.7 -58.4 2.6
      vertex 3.8 -58.4 2.6
    endloop
  endfacet
  facet normal 0 0 1
    outer loop
      vertex 3.8 -50.8 2.6
      vertex -3.7 -50.8 2.6
      vertex 3.8 -58.4 2.6
    endloop
  endfacet
  facet normal -1 0 0
    outer loop
      vertex -3.7 58 5.6
      vertex -3.7 58 2.6
      vertex -3.7 -50.8 5.6
    endloop
  endfacet
  facet normal -1 0 0
    outer loop
      vertex -3.7 -50.8 5.6
      vertex -3.7 58 2.6
      vertex -3.7 -50.8 2.6
    endloop
  endfacet
  facet normal 0 -1 0
    outer loop
      vertex -3.7 -50.8 5.6
      vertex -3.7 -50.8 2.6
      vertex 3.8 -50.8 2.6
    endloop
  endfacet
  facet normal 0 -1 0
    outer loop
      vertex 3.8 -50.8 5.6
      vertex -3.7 -50.8 5.6
      vertex 3.8 -50.8 2.6
    endloop
  endfacet
  facet normal 0 -1 0
    outer loop
      vertex -3.7 -58.4 2.6
      vertex -3.7 -58.4 0
      vertex 3.8 -58.4 0
    endloop
  endfacet
  facet normal 0 -1 0
    outer loop
      vertex 3.8 -58.4 2.6
      vertex -3.7 -58.4 2.6
      vertex 3.8 -58.4 0
    endloop
  endfacet
  facet normal 1 0 0
    outer loop
      vertex 3.8 -58.4 2.6
      vertex 3.8 -58.4 0
      vertex 3.8 -50.8 0
    endloop
  endfacet
  facet normal 1 0 0
    outer loop
      vertex 3.8 -50.8 2.6
      vertex 3.8 -58.4 2.6
      vertex 3.8 -50.8 0
    endloop
  endfacet
  facet normal 0 -1 0
    outer loop
      vertex 3.8 -50.8 2.6
      vertex 3.8 -50.8 0
      vertex 34.2 -50.8 0
    endloop
  endfacet
  facet normal 0 -1 0
    outer loop
      vertex 34.2 -50.8 2.6
      vertex 3.8 -50.8 2.6
      vertex 34.2 -50.8 0
    endloop
  endfacet
  facet normal 1 0 0
    outer loop
      vertex 34.2 -50.8 2.6
      vertex 34.2 -50.8 0
      vertex 34.2 58 0
    endloop
  endfacet
  facet normal 1 0 0
    outer loop
      vertex 34.2 58 2.6
      vertex 34.2 -50.8 2.6
      vertex 34.2 58 0
    endloop
  endfacet
  facet normal 0 1 0
    outer loop
      vertex 3.8 58 0
      vertex 3.8 58 2.6
      vertex 34.2 58 0
    endloop
  endfacet
  facet normal 0 1 0
    outer loop
      vertex 34.2 58 0
      vertex 3.8 58 2.6
      vertex 34.2 58 2.6
    endloop
  endfacet
  facet normal 1 0 0
    outer loop
      vertex 3.8 58 2.6
      vertex 3.8 58 0
      vertex 3.8 65.2 0
    endloop
  endfacet
  facet normal 1 0 0
    outer loop
      vertex 3.8 65.2 2.6
      vertex 3.8 58 2.6
      vertex 3.8 65.2 0
    endloop
  endfacet
  facet normal 0 1 0
    outer loop
      vertex -3.7 65.2 0
      vertex -3.7 65.2 2.6
      vertex 3.8 65.2 0
    endloop
  endfacet
  facet normal 0 1 0
    outer loop
      vertex 3.8 65.2 0
      vertex -3.7 65.2 2.6
      vertex 3.8 65.2 2.6
    endloop
  endfacet
  facet normal -1 0 0
    outer loop
      vertex -3.7 65.2 2.6
      vertex -3.7 65.2 0
      vertex -3.7 58 2.6
    endloop
  endfacet
  facet normal -1 0 0
    outer loop
      vertex -3.7 58 2.6
      vertex -3.7 65.2 0
      vertex -3.7 58 0
    endloop
  endfacet
  facet normal 0 0 1
    outer loop
      vertex -3.7 65.2 2.6
      vertex -3.7 58 2.6
      vertex 3.8 58 2.6
    endloop
  endfacet
  facet normal 0 0 1
    outer loop
      vertex 3.8 65.2 2.6
      vertex -3.7 65.2 2.6
      vertex 3.8 58 2.6
    endloop
  endfacet
  facet normal 0 1 0
    outer loop
      vertex -3.7 58 2.6
      vertex -3.7 58 5.6
      vertex 3.8 58 2.6
    endloop
  endfacet
  facet normal 0 1 0
    outer loop
      vertex 3.8 58 2.6
      vertex -3.7 58 5.6
      vertex 3.8 58 5.6
    endloop
  endfacet
  facet normal 1 0 0
    outer loop
      vertex 3.8 -50.8 5.6
      vertex 3.8 -50.8 2.6
      vertex 3.8 58 2.6
    endloop
  endfacet
  facet normal 1 0 0
    outer loop
      vertex 3.8 58 5.6
      vertex 3.8 -50.8 5.6
      vertex 3.8 58 2.6
    endloop
  endfacet
  facet normal 0 0 1
    outer loop
      vertex 3.8 58 2.6
      vertex 3.8 -50.8 2.6
      vertex 34.2 -50.8 2.6
    endloop
  endfacet
  facet normal 0 0 1
    outer loop
      vertex 34.2 58 2.6
      vertex 3.8 58 2.6
      vertex 34.2 -50.8 2.6
    endloop
  endfacet
  facet normal 0 0 1
    outer loop
      vertex -3.7 58 5.6
      vertex -3.7 -50.8 5.6
      vertex 3.8 -50.8 5.6
    endloop
  endfacet
  facet normal 0 0 1
    outer loop
      vertex 3.8 58 5.6
      vertex -3.7 58 5.6
      vertex 3.8 -50.8 5.6
    endloop
  endfacet
endsolid OpenSCAD_Model
