solid OpenSCAD_Model
  facet normal -1 0 0
    outer loop
      vertex -34.5 -58.2 3
      vertex -34.5 -58.2 0
      vertex -34.5 -61.8 3
    endloop
  endfacet
  facet normal -1 0 0
    outer loop
      vertex -34.5 -61.8 3
      vertex -34.5 -58.2 0
      vertex -34.5 -61.8 0
    endloop
  endfacet
  facet normal 0 -1 0
    outer loop
      vertex -34.5 -61.8 3
      vertex -34.5 -61.8 0
      vertex -31.8 -61.8 0
    endloop
  endfacet
  facet normal 0 -1 0
    outer loop
      vertex -31.8 -61.8 3
      vertex -34.5 -61.8 3
      vertex -31.8 -61.8 0
    endloop
  endfacet
  facet normal 0 0 -1
    outer loop
      vertex -34.5 -61.8 0
      vertex -34.5 -58.2 0
      vertex -31.8 -61.8 0
    endloop
  endfacet
  facet normal 0 0 -1
    outer loop
      vertex -31.8 -61.8 0
      vertex -34.5 -58.2 0
      vertex -31.8 -58.2 0
    endloop
  endfacet
  facet normal 0 0 -1
    outer loop
      vertex -31.8 -58.2 0
      vertex -18.6 64.9 0
      vertex -31.8 -61.8 0
    endloop
  endfacet
  facet normal 0 0 -1
    outer loop
      vertex -31.8 -54.8 0
      vertex -34.5 -54.8 0
      vertex -34.5 54.7 0
    endloop
  endfacet
  facet normal 0 0 -1
    outer loop
      vertex -31.8 -54.8 0
      vertex -34.5 54.7 0
      vertex -31.8 54.7 0
    endloop
  endfacet
  facet normal 0 0 -1
    outer loop
      vertex -31.8 -54.8 0
      vertex -18.6 64.9 0
      vertex -31.8 -58.2 0
    endloop
  endfacet
  facet normal 0 0 -1
    outer loop
      vertex -31.8 54.7 0
      vertex -18.6 64.9 0
      vertex -31.8 -54.8 0
    endloop
  endfacet
  facet normal 0 0 -1
    outer loop
      vertex -31.8 58.1 0
      vertex -34.5 58.1 0
      vertex -34.5 61.7 0
    endloop
  endfacet
  facet normal 0 0 -1
    outer loop
      vertex -31.8 58.1 0
      vertex -34.5 61.7 0
      vertex -31.8 61.7 0
    endloop
  endfacet
  facet normal 0 0 -1
    outer loop
      vertex -31.8 58.1 0
      vertex -18.6 64.9 0
      vertex -31.8 54.7 0
    endloop
  endfacet
  facet normal 0 0 -1
    outer loop
      vertex -31.8 61.7 0
      vertex -31.8 64.9 0
      vertex -18.6 64.9 0
    endloop
  endfacet
  facet normal 0 0 -1
    outer loop
      vertex -31.8 61.7 0
      vertex -18.6 64.9 0
      vertex -31.8 58.1 0
    endloop
  endfacet
  facet normal 0 0 -1
    outer loop
      vertex -31.8 -61.8 0
      vertex -18.6 64.9 0
      vertex -18.6 61.9 0
    endloop
  endfacet
  facet normal 0 0 -1
    outer loop
      vertex -18.6 58.1 0
      vertex -18.6 61.9 0
      vertex 18.7 61.9 0
    endloop
  endfacet
  facet normal 0 0 -1
    outer loop
      vertex 18.7 61.9 0
      vertex 18.7 64.9 0
      vertex 31.9 64.9 0
    endloop
  endfacet
  facet normal 0 0 -1
    outer loop
      vertex 18.7 54.9 0
      vertex 31.9 64.9 0
      vertex -31.8 -61.8 0
    endloop
  endfacet
  facet normal 0 0 -1
    outer loop
      vertex -31.8 -61.8 0
      vertex 31.9 64.9 0
      vertex 31.9 61.7 0
    endloop
  endfacet
  facet normal 0 0 -1
    outer loop
      vertex 31.9 58.1 0
      vertex 31.9 61.7 0
      vertex 34.6 61.7 0
    endloop
  endfacet
  facet normal 0 0 -1
    outer loop
      vertex 31.9 -58.2 0
      vertex 18.7 -58.2 0
      vertex 31.9 -54.8 0
    endloop
  endfacet
  facet normal 0 0 -1
    outer loop
      vertex -31.8 -61.8 0
      vertex 31.9 61.7 0
      vertex 31.9 58.1 0
    endloop
  endfacet
  facet normal 0 0 -1
    outer loop
      vertex 34.6 54.7 0
      vertex -31.8 -61.8 0
      vertex 31.9 54.7 0
    endloop
  endfacet
  facet normal 0 0 -1
    outer loop
      vertex 18.7 -55 0
      vertex 31.9 -54.8 0
      vertex 18.7 -58.2 0
    endloop
  endfacet
  facet normal 0 0 -1
    outer loop
      vertex 31.9 -54.8 0
      vertex 34.6 54.7 0
      vertex 34.6 -54.8 0
    endloop
  endfacet
  facet normal 0 0 -1
    outer loop
      vertex -18.6 -55 0
      vertex 34.6 54.7 0
      vertex 31.9 -54.8 0
    endloop
  endfacet
  facet normal 0 0 -1
    outer loop
      vertex 18.7 -62 0
      vertex 31.9 -65 0
      vertex 18.7 -65 0
    endloop
  endfacet
  facet normal 0 0 -1
    outer loop
      vertex -31.8 -61.8 0
      vertex 31.9 -58.2 0
      vertex 34.6 -58.2 0
    endloop
  endfacet
  facet normal 0 0 -1
    outer loop
      vertex 31.9 -61.8 0
      vertex 34.6 -58.2 0
      vertex 34.6 -61.8 0
    endloop
  endfacet
  facet normal 0 0 -1
    outer loop
      vertex -31.8 -61.8 0
      vertex 34.6 -58.2 0
      vertex 31.9 -61.8 0
    endloop
  endfacet
  facet normal 0 0 -1
    outer loop
      vertex 31.9 58.1 0
      vertex 34.6 61.7 0
      vertex 34.6 58.1 0
    endloop
  endfacet
  facet normal 0 0 -1
    outer loop
      vertex 31.9 54.7 0
      vertex -31.8 -61.8 0
      vertex 31.9 58.1 0
    endloop
  endfacet
  facet normal 0 0 -1
    outer loop
      vertex 31.9 -61.8 0
      vertex 31.9 -65 0
      vertex 18.7 -62 0
    endloop
  endfacet
  facet normal 0 0 -1
    outer loop
      vertex 31.9 -61.8 0
      vertex 18.7 -62 0
      vertex -31.8 -61.8 0
    endloop
  endfacet
  facet normal 0 0 -1
    outer loop
      vertex -18.6 -65 0
      vertex -31.8 -61.8 0
      vertex -18.6 -62 0
    endloop
  endfacet
  facet normal 0 0 -1
    outer loop
      vertex 18.7 -62 0
      vertex -18.6 -62 0
      vertex -31.8 -61.8 0
    endloop
  endfacet
  facet normal 0 0 -1
    outer loop
      vertex -31.8 -61.8 0
      vertex 34.6 54.7 0
      vertex -18.6 -55 0
    endloop
  endfacet
  facet normal 0 0 -1
    outer loop
      vertex -7.1 -55 0
      vertex -18.6 -55 0
      vertex 31.9 -54.8 0
    endloop
  endfacet
  facet normal 0 0 -1
    outer loop
      vertex -31.8 -61.8 0
      vertex -18.6 -55 0
      vertex -18.6 -58.2 0
    endloop
  endfacet
  facet normal 0 0 -1
    outer loop
      vertex -31.8 -61.8 0
      vertex -18.6 -58.2 0
      vertex -7.1 -58.2 0
    endloop
  endfacet
  facet normal 0 0 -1
    outer loop
      vertex 7.2 -55 0
      vertex -7.1 -55 0
      vertex 31.9 -54.8 0
    endloop
  endfacet
  facet normal 0 0 -1
    outer loop
      vertex -31.8 -61.8 0
      vertex -18.6 61.9 0
      vertex -18.6 58.1 0
    endloop
  endfacet
  facet normal 0 0 -1
    outer loop
      vertex -7.1 58.1 0
      vertex -18.6 58.1 0
      vertex 18.7 61.9 0
    endloop
  endfacet
  facet normal 0 0 -1
    outer loop
      vertex -31.8 -61.8 0
      vertex -18.6 58.1 0
      vertex -18.6 54.9 0
    endloop
  endfacet
  facet normal 0 0 -1
    outer loop
      vertex 7.2 -58.2 0
      vertex -7.1 -58.2 0
      vertex 7.2 -55 0
    endloop
  endfacet
  facet normal 0 0 -1
    outer loop
      vertex -31.8 -61.8 0
      vertex -18.6 54.9 0
      vertex -7.1 54.9 0
    endloop
  endfacet
  facet normal 0 0 -1
    outer loop
      vertex 7.2 58.1 0
      vertex -7.1 54.9 0
      vertex 18.7 61.9 0
    endloop
  endfacet
  facet normal 0 0 -1
    outer loop
      vertex 7.2 -58.2 0
      vertex -31.8 -61.8 0
      vertex -7.1 -58.2 0
    endloop
  endfacet
  facet normal 0 0 -1
    outer loop
      vertex -7.1 58.1 0
      vertex 18.7 61.9 0
      vertex -7.1 54.9 0
    endloop
  endfacet
  facet normal 0 0 -1
    outer loop
      vertex 18.7 -55 0
      vertex 7.2 -55 0
      vertex 31.9 -54.8 0
    endloop
  endfacet
  facet normal 0 0 -1
    outer loop
      vertex -31.8 -61.8 0
      vertex 18.7 -58.2 0
      vertex 31.9 -58.2 0
    endloop
  endfacet
  facet normal 0 0 -1
    outer loop
      vertex 7.2 -58.2 0
      vertex 18.7 -58.2 0
      vertex -31.8 -61.8 0
    endloop
  endfacet
  facet normal 0 0 -1
    outer loop
      vertex 7.2 58.1 0
      vertex 18.7 61.9 0
      vertex 18.7 58.1 0
    endloop
  endfacet
  facet normal 0 0 -1
    outer loop
      vertex -31.8 -61.8 0
      vertex -7.1 54.9 0
      vertex 7.2 58.1 0
    endloop
  endfacet
  facet normal 0 0 -1
    outer loop
      vertex 18.7 54.9 0
      vertex -31.8 -61.8 0
      vertex 7.2 54.9 0
    endloop
  endfacet
  facet normal 0 0 -1
    outer loop
      vertex -31.8 -61.8 0
      vertex 7.2 58.1 0
      vertex 7.2 54.9 0
    endloop
  endfacet
  facet normal 0 0 -1
    outer loop
      vertex 18.7 61.9 0
      vertex 31.9 64.9 0
      vertex 18.7 54.9 0
    endloop
  endfacet
  facet normal 0 0 -1
    outer loop
      vertex 18.7 61.9 0
      vertex 18.7 54.9 0
      vertex 18.7 58.1 0
    endloop
  endfacet
  facet normal 0 0 -1
    outer loop
      vertex -7.1 -55 0
      vertex 7.2 -55 0
      vertex -7.1 -58.2 0
    endloop
  endfacet
  facet normal 0 0 -1
    outer loop
      vertex -31.8 -61.8 0
      vertex -18.6 -65 0
      vertex -31.8 -65 0
    endloop
  endfacet
  facet normal 0 0 1
    outer loop
      vertex -18.6 -62 3
      vertex 18.7 -62 3
      vertex -34.5 -58.2 3
    endloop
  endfacet
  facet normal 0 0 1
    outer loop
      vertex -34.5 -58.2 3
      vertex -34.5 -61.8 3
      vertex -31.8 -61.8 3
    endloop
  endfacet
  facet normal 0 0 1
    outer loop
      vertex -18.6 -65 3
      vertex -34.5 -58.2 3
      vertex -31.8 -61.8 3
    endloop
  endfacet
  facet normal 0 0 1
    outer loop
      vertex -31.8 -65 3
      vertex -18.6 -65 3
      vertex -31.8 -61.8 3
    endloop
  endfacet
  facet normal 0 0 1
    outer loop
      vertex -18.6 -65 3
      vertex -18.6 -62 3
      vertex -34.5 -58.2 3
    endloop
  endfacet
  facet normal 0 0 1
    outer loop
      vertex 18.7 -62 3
      vertex 31.9 -61.8 3
      vertex -34.5 -58.2 3
    endloop
  endfacet
  facet normal 0 0 1
    outer loop
      vertex 31.9 -61.8 3
      vertex 34.6 -61.8 3
      vertex -34.5 -58.2 3
    endloop
  endfacet
  facet normal 0 0 1
    outer loop
      vertex 18.7 -65 3
      vertex 31.9 -65 3
      vertex 18.7 -62 3
    endloop
  endfacet
  facet normal 0 0 1
    outer loop
      vertex 31.9 -65 3
      vertex 31.9 -61.8 3
      vertex 18.7 -62 3
    endloop
  endfacet
  facet normal 0 0 1
    outer loop
      vertex -7.1 58.1 3
      vertex -7.1 54.9 3
      vertex 18.7 61.9 3
    endloop
  endfacet
  facet normal 0 0 1
    outer loop
      vertex 34.6 -61.8 3
      vertex 31.9 -58.2 3
      vertex 18.7 -58.2 3
    endloop
  endfacet
  facet normal 0 0 1
    outer loop
      vertex 34.6 -61.8 3
      vertex 34.6 -58.2 3
      vertex 31.9 -58.2 3
    endloop
  endfacet
  facet normal 0 0 1
    outer loop
      vertex -31.8 -54.8 3
      vertex 31.9 -54.8 3
      vertex 34.6 54.7 3
    endloop
  endfacet
  facet normal 0 0 1
    outer loop
      vertex 31.9 -54.8 3
      vertex 34.6 -54.8 3
      vertex 34.6 54.7 3
    endloop
  endfacet
  facet normal 0 0 1
    outer loop
      vertex -7.1 -55 3
      vertex -7.1 -58.2 3
      vertex 7.2 -55 3
    endloop
  endfacet
  facet normal 0 0 1
    outer loop
      vertex 18.7 -55 3
      vertex 18.7 -58.2 3
      vertex 31.9 -54.8 3
    endloop
  endfacet
  facet normal 0 0 1
    outer loop
      vertex 31.9 58.1 3
      vertex 34.6 58.1 3
      vertex 34.6 61.7 3
    endloop
  endfacet
  facet normal 0 0 1
    outer loop
      vertex 31.9 58.1 3
      vertex 34.6 61.7 3
      vertex 31.9 61.7 3
    endloop
  endfacet
  facet normal 0 0 1
    outer loop
      vertex 18.7 61.9 3
      vertex 31.9 64.9 3
      vertex 18.7 64.9 3
    endloop
  endfacet
  facet normal 0 0 1
    outer loop
      vertex 7.2 58.1 3
      vertex 18.7 58.1 3
      vertex 18.7 61.9 3
    endloop
  endfacet
  facet normal 0 0 1
    outer loop
      vertex 18.7 58.1 3
      vertex 31.9 64.9 3
      vertex 18.7 61.9 3
    endloop
  endfacet
  facet normal 0 0 1
    outer loop
      vertex -31.8 61.7 3
      vertex -18.6 64.9 3
      vertex -31.8 64.9 3
    endloop
  endfacet
  facet normal 0 0 1
    outer loop
      vertex -34.5 -54.8 3
      vertex -7.1 54.9 3
      vertex -18.6 54.9 3
    endloop
  endfacet
  facet normal 0 0 1
    outer loop
      vertex -31.8 58.1 3
      vertex -18.6 64.9 3
      vertex -31.8 61.7 3
    endloop
  endfacet
  facet normal 0 0 1
    outer loop
      vertex -34.5 -54.8 3
      vertex -18.6 64.9 3
      vertex -31.8 54.7 3
    endloop
  endfacet
  facet normal 0 0 1
    outer loop
      vertex -31.8 54.7 3
      vertex -18.6 64.9 3
      vertex -31.8 58.1 3
    endloop
  endfacet
  facet normal 0 0 1
    outer loop
      vertex -34.5 -54.8 3
      vertex -18.6 61.9 3
      vertex -18.6 64.9 3
    endloop
  endfacet
  facet normal 0 0 1
    outer loop
      vertex -34.5 58.1 3
      vertex -31.8 58.1 3
      vertex -31.8 61.7 3
    endloop
  endfacet
  facet normal 0 0 1
    outer loop
      vertex -18.6 -55 3
      vertex 31.9 -54.8 3
      vertex -31.8 -54.8 3
    endloop
  endfacet
  facet normal 0 0 1
    outer loop
      vertex 34.6 -61.8 3
      vertex -31.8 -58.2 3
      vertex -34.5 -58.2 3
    endloop
  endfacet
  facet normal 0 0 1
    outer loop
      vertex 34.6 -61.8 3
      vertex -18.6 -58.2 3
      vertex -31.8 -58.2 3
    endloop
  endfacet
  facet normal 0 0 1
    outer loop
      vertex -7.1 -55 3
      vertex 31.9 -54.8 3
      vertex -18.6 -55 3
    endloop
  endfacet
  facet normal 0 0 1
    outer loop
      vertex -18.6 -58.2 3
      vertex -18.6 -55 3
      vertex -31.8 -58.2 3
    endloop
  endfacet
  facet normal 0 0 1
    outer loop
      vertex 7.2 -55 3
      vertex 31.9 -54.8 3
      vertex -7.1 -55 3
    endloop
  endfacet
  facet normal 0 0 1
    outer loop
      vertex 34.6 -61.8 3
      vertex -7.1 -58.2 3
      vertex -18.6 -58.2 3
    endloop
  endfacet
  facet normal 0 0 1
    outer loop
      vertex 18.7 54.9 3
      vertex 7.2 54.9 3
      vertex -34.5 -54.8 3
    endloop
  endfacet
  facet normal 0 0 1
    outer loop
      vertex -34.5 -54.8 3
      vertex -18.6 54.9 3
      vertex -18.6 61.9 3
    endloop
  endfacet
  facet normal 0 0 1
    outer loop
      vertex -18.6 54.9 3
      vertex -18.6 58.1 3
      vertex -18.6 61.9 3
    endloop
  endfacet
  facet normal 0 0 1
    outer loop
      vertex -31.8 54.7 3
      vertex -34.5 54.7 3
      vertex -34.5 -54.8 3
    endloop
  endfacet
  facet normal 0 0 1
    outer loop
      vertex -31.8 61.7 3
      vertex -34.5 61.7 3
      vertex -34.5 58.1 3
    endloop
  endfacet
  facet normal 0 0 1
    outer loop
      vertex 34.6 -61.8 3
      vertex 7.2 -58.2 3
      vertex -7.1 -58.2 3
    endloop
  endfacet
  facet normal 0 0 1
    outer loop
      vertex 18.7 -55 3
      vertex 31.9 -54.8 3
      vertex 7.2 -55 3
    endloop
  endfacet
  facet normal 0 0 1
    outer loop
      vertex 7.2 -58.2 3
      vertex 7.2 -55 3
      vertex -7.1 -58.2 3
    endloop
  endfacet
  facet normal 0 0 1
    outer loop
      vertex 34.6 -61.8 3
      vertex 18.7 -58.2 3
      vertex 7.2 -58.2 3
    endloop
  endfacet
  facet normal 0 0 1
    outer loop
      vertex 31.9 -58.2 3
      vertex 31.9 -54.8 3
      vertex 18.7 -58.2 3
    endloop
  endfacet
  facet normal 0 0 1
    outer loop
      vertex 7.2 54.9 3
      vertex 7.2 58.1 3
      vertex -7.1 54.9 3
    endloop
  endfacet
  facet normal 0 0 1
    outer loop
      vertex -34.5 -54.8 3
      vertex 7.2 54.9 3
      vertex -7.1 54.9 3
    endloop
  endfacet
  facet normal 0 0 1
    outer loop
      vertex 18.7 54.9 3
      vertex 31.9 64.9 3
      vertex 18.7 58.1 3
    endloop
  endfacet
  facet normal 0 0 1
    outer loop
      vertex -31.8 -54.8 3
      vertex -31.8 -58.2 3
      vertex -18.6 -55 3
    endloop
  endfacet
  facet normal 0 0 1
    outer loop
      vertex 18.7 61.9 3
      vertex -7.1 54.9 3
      vertex 7.2 58.1 3
    endloop
  endfacet
  facet normal 0 0 1
    outer loop
      vertex 18.7 61.9 3
      vertex -18.6 58.1 3
      vertex -7.1 58.1 3
    endloop
  endfacet
  facet normal 0 0 1
    outer loop
      vertex 18.7 61.9 3
      vertex -18.6 61.9 3
      vertex -18.6 58.1 3
    endloop
  endfacet
  facet normal 0 0 1
    outer loop
      vertex -34.5 -54.8 3
      vertex 31.9 64.9 3
      vertex 18.7 54.9 3
    endloop
  endfacet
  facet normal 0 0 1
    outer loop
      vertex -34.5 -54.8 3
      vertex 31.9 61.7 3
      vertex 31.9 64.9 3
    endloop
  endfacet
  facet normal 0 0 1
    outer loop
      vertex -34.5 -54.8 3
      vertex 31.9 58.1 3
      vertex 31.9 61.7 3
    endloop
  endfacet
  facet normal 0 0 1
    outer loop
      vertex -34.5 -54.8 3
      vertex 31.9 54.7 3
      vertex 31.9 58.1 3
    endloop
  endfacet
  facet normal 0 0 1
    outer loop
      vertex -34.5 -54.8 3
      vertex 34.6 54.7 3
      vertex 31.9 54.7 3
    endloop
  endfacet
  facet normal 0 0 1
    outer loop
      vertex -34.5 -54.8 3
      vertex -31.8 -54.8 3
      vertex 34.6 54.7 3
    endloop
  endfacet
  facet normal 0 1 0
    outer loop
      vertex -34.5 -58.2 0
      vertex -34.5 -58.2 3
      vertex -31.8 -58.2 0
    endloop
  endfacet
  facet normal 0 1 0
    outer loop
      vertex -31.8 -58.2 0
      vertex -34.5 -58.2 3
      vertex -31.8 -58.2 3
    endloop
  endfacet
  facet normal -1 0 0
    outer loop
      vertex -31.8 -65 0
      vertex -31.8 -65 3
      vertex -31.8 -61.8 0
    endloop
  endfacet
  facet normal -1 0 0
    outer loop
      vertex -31.8 -61.8 0
      vertex -31.8 -65 3
      vertex -31.8 -61.8 3
    endloop
  endfacet
  facet normal 0 -1 0
    outer loop
      vertex -18.6 -65 0
      vertex -18.6 -65 3
      vertex -31.8 -65 3
    endloop
  endfacet
  facet normal 0 -1 0
    outer loop
      vertex -31.8 -65 0
      vertex -18.6 -65 0
      vertex -31.8 -65 3
    endloop
  endfacet
  facet normal 1 0 0
    outer loop
      vertex -18.6 -65 3
      vertex -18.6 -65 0
      vertex -18.6 -62 0
    endloop
  endfacet
  facet normal 1 0 0
    outer loop
      vertex -18.6 -62 3
      vertex -18.6 -65 3
      vertex -18.6 -62 0
    endloop
  endfacet
  facet normal 0 -1 0
    outer loop
      vertex 18.7 -62 0
      vertex 18.7 -62 3
      vertex -18.6 -62 3
    endloop
  endfacet
  facet normal 0 -1 0
    outer loop
      vertex -18.6 -62 0
      vertex 18.7 -62 0
      vertex -18.6 -62 3
    endloop
  endfacet
  facet normal -1 0 0
    outer loop
      vertex 18.7 -62 3
      vertex 18.7 -62 0
      vertex 18.7 -65 3
    endloop
  endfacet
  facet normal -1 0 0
    outer loop
      vertex 18.7 -65 3
      vertex 18.7 -62 0
      vertex 18.7 -65 0
    endloop
  endfacet
  facet normal 0 -1 0
    outer loop
      vertex 18.7 -65 3
      vertex 18.7 -65 0
      vertex 31.9 -65 0
    endloop
  endfacet
  facet normal 0 -1 0
    outer loop
      vertex 31.9 -65 3
      vertex 18.7 -65 3
      vertex 31.9 -65 0
    endloop
  endfacet
  facet normal 1 0 0
    outer loop
      vertex 31.9 -61.8 0
      vertex 31.9 -61.8 3
      vertex 31.9 -65 3
    endloop
  endfacet
  facet normal 1 0 0
    outer loop
      vertex 31.9 -65 0
      vertex 31.9 -61.8 0
      vertex 31.9 -65 3
    endloop
  endfacet
  facet normal 0 -1 0
    outer loop
      vertex 34.6 -61.8 0
      vertex 34.6 -61.8 3
      vertex 31.9 -61.8 3
    endloop
  endfacet
  facet normal 0 -1 0
    outer loop
      vertex 31.9 -61.8 0
      vertex 34.6 -61.8 0
      vertex 31.9 -61.8 3
    endloop
  endfacet
  facet normal 1 0 0
    outer loop
      vertex 34.6 -61.8 3
      vertex 34.6 -61.8 0
      vertex 34.6 -58.2 0
    endloop
  endfacet
  facet normal 1 0 0
    outer loop
      vertex 34.6 -58.2 3
      vertex 34.6 -61.8 3
      vertex 34.6 -58.2 0
    endloop
  endfacet
  facet normal 0 1 0
    outer loop
      vertex 34.6 -58.2 3
      vertex 34.6 -58.2 0
      vertex 31.9 -58.2 3
    endloop
  endfacet
  facet normal 0 1 0
    outer loop
      vertex 31.9 -58.2 3
      vertex 34.6 -58.2 0
      vertex 31.9 -58.2 0
    endloop
  endfacet
  facet normal 1 0 0
    outer loop
      vertex 31.9 -54.8 0
      vertex 31.9 -54.8 3
      vertex 31.9 -58.2 3
    endloop
  endfacet
  facet normal 1 0 0
    outer loop
      vertex 31.9 -58.2 0
      vertex 31.9 -54.8 0
      vertex 31.9 -58.2 3
    endloop
  endfacet
  facet normal 0 -1 0
    outer loop
      vertex 34.6 -54.8 0
      vertex 34.6 -54.8 3
      vertex 31.9 -54.8 3
    endloop
  endfacet
  facet normal 0 -1 0
    outer loop
      vertex 31.9 -54.8 0
      vertex 34.6 -54.8 0
      vertex 31.9 -54.8 3
    endloop
  endfacet
  facet normal 1 0 0
    outer loop
      vertex 34.6 -54.8 3
      vertex 34.6 -54.8 0
      vertex 34.6 54.7 0
    endloop
  endfacet
  facet normal 1 0 0
    outer loop
      vertex 34.6 54.7 3
      vertex 34.6 -54.8 3
      vertex 34.6 54.7 0
    endloop
  endfacet
  facet normal 0 1 0
    outer loop
      vertex 31.9 54.7 0
      vertex 31.9 54.7 3
      vertex 34.6 54.7 0
    endloop
  endfacet
  facet normal 0 1 0
    outer loop
      vertex 34.6 54.7 0
      vertex 31.9 54.7 3
      vertex 34.6 54.7 3
    endloop
  endfacet
  facet normal 1 0 0
    outer loop
      vertex 31.9 54.7 3
      vertex 31.9 54.7 0
      vertex 31.9 58.1 0
    endloop
  endfacet
  facet normal 1 0 0
    outer loop
      vertex 31.9 58.1 3
      vertex 31.9 54.7 3
      vertex 31.9 58.1 0
    endloop
  endfacet
  facet normal 0 -1 0
    outer loop
      vertex 31.9 58.1 3
      vertex 31.9 58.1 0
      vertex 34.6 58.1 0
    endloop
  endfacet
  facet normal 0 -1 0
    outer loop
      vertex 34.6 58.1 3
      vertex 31.9 58.1 3
      vertex 34.6 58.1 0
    endloop
  endfacet
  facet normal 1 0 0
    outer loop
      vertex 34.6 61.7 0
      vertex 34.6 61.7 3
      vertex 34.6 58.1 3
    endloop
  endfacet
  facet normal 1 0 0
    outer loop
      vertex 34.6 58.1 0
      vertex 34.6 61.7 0
      vertex 34.6 58.1 3
    endloop
  endfacet
  facet normal 0 1 0
    outer loop
      vertex 31.9 61.7 0
      vertex 31.9 61.7 3
      vertex 34.6 61.7 0
    endloop
  endfacet
  facet normal 0 1 0
    outer loop
      vertex 34.6 61.7 0
      vertex 31.9 61.7 3
      vertex 34.6 61.7 3
    endloop
  endfacet
  facet normal 1 0 0
    outer loop
      vertex 31.9 61.7 3
      vertex 31.9 61.7 0
      vertex 31.9 64.9 0
    endloop
  endfacet
  facet normal 1 0 0
    outer loop
      vertex 31.9 64.9 3
      vertex 31.9 61.7 3
      vertex 31.9 64.9 0
    endloop
  endfacet
  facet normal 0 1 0
    outer loop
      vertex 31.9 64.9 3
      vertex 31.9 64.9 0
      vertex 18.7 64.9 3
    endloop
  endfacet
  facet normal 0 1 0
    outer loop
      vertex 18.7 64.9 3
      vertex 31.9 64.9 0
      vertex 18.7 64.9 0
    endloop
  endfacet
  facet normal -1 0 0
    outer loop
      vertex 18.7 61.9 0
      vertex 18.7 61.9 3
      vertex 18.7 64.9 0
    endloop
  endfacet
  facet normal -1 0 0
    outer loop
      vertex 18.7 64.9 0
      vertex 18.7 61.9 3
      vertex 18.7 64.9 3
    endloop
  endfacet
  facet normal 0 1 0
    outer loop
      vertex -18.6 61.9 0
      vertex -18.6 61.9 3
      vertex 18.7 61.9 0
    endloop
  endfacet
  facet normal 0 1 0
    outer loop
      vertex 18.7 61.9 0
      vertex -18.6 61.9 3
      vertex 18.7 61.9 3
    endloop
  endfacet
  facet normal 1 0 0
    outer loop
      vertex -18.6 64.9 0
      vertex -18.6 64.9 3
      vertex -18.6 61.9 3
    endloop
  endfacet
  facet normal 1 0 0
    outer loop
      vertex -18.6 61.9 0
      vertex -18.6 64.9 0
      vertex -18.6 61.9 3
    endloop
  endfacet
  facet normal 0 1 0
    outer loop
      vertex -31.8 64.9 0
      vertex -31.8 64.9 3
      vertex -18.6 64.9 0
    endloop
  endfacet
  facet normal 0 1 0
    outer loop
      vertex -18.6 64.9 0
      vertex -31.8 64.9 3
      vertex -18.6 64.9 3
    endloop
  endfacet
  facet normal -1 0 0
    outer loop
      vertex -31.8 64.9 3
      vertex -31.8 64.9 0
      vertex -31.8 61.7 3
    endloop
  endfacet
  facet normal -1 0 0
    outer loop
      vertex -31.8 61.7 3
      vertex -31.8 64.9 0
      vertex -31.8 61.7 0
    endloop
  endfacet
  facet normal 0 1 0
    outer loop
      vertex -31.8 61.7 3
      vertex -31.8 61.7 0
      vertex -34.5 61.7 3
    endloop
  endfacet
  facet normal 0 1 0
    outer loop
      vertex -34.5 61.7 3
      vertex -31.8 61.7 0
      vertex -34.5 61.7 0
    endloop
  endfacet
  facet normal -1 0 0
    outer loop
      vertex -34.5 58.1 0
      vertex -34.5 58.1 3
      vertex -34.5 61.7 0
    endloop
  endfacet
  facet normal -1 0 0
    outer loop
      vertex -34.5 61.7 0
      vertex -34.5 58.1 3
      vertex -34.5 61.7 3
    endloop
  endfacet
  facet normal 0 -1 0
    outer loop
      vertex -31.8 58.1 0
      vertex -31.8 58.1 3
      vertex -34.5 58.1 3
    endloop
  endfacet
  facet normal 0 -1 0
    outer loop
      vertex -34.5 58.1 0
      vertex -31.8 58.1 0
      vertex -34.5 58.1 3
    endloop
  endfacet
  facet normal -1 0 0
    outer loop
      vertex -31.8 58.1 3
      vertex -31.8 58.1 0
      vertex -31.8 54.7 3
    endloop
  endfacet
  facet normal -1 0 0
    outer loop
      vertex -31.8 54.7 3
      vertex -31.8 58.1 0
      vertex -31.8 54.7 0
    endloop
  endfacet
  facet normal 0 1 0
    outer loop
      vertex -31.8 54.7 3
      vertex -31.8 54.7 0
      vertex -34.5 54.7 3
    endloop
  endfacet
  facet normal 0 1 0
    outer loop
      vertex -34.5 54.7 3
      vertex -31.8 54.7 0
      vertex -34.5 54.7 0
    endloop
  endfacet
  facet normal -1 0 0
    outer loop
      vertex -34.5 54.7 3
      vertex -34.5 54.7 0
      vertex -34.5 -54.8 3
    endloop
  endfacet
  facet normal -1 0 0
    outer loop
      vertex -34.5 -54.8 3
      vertex -34.5 54.7 0
      vertex -34.5 -54.8 0
    endloop
  endfacet
  facet normal 0 -1 0
    outer loop
      vertex -34.5 -54.8 3
      vertex -34.5 -54.8 0
      vertex -31.8 -54.8 0
    endloop
  endfacet
  facet normal 0 -1 0
    outer loop
      vertex -31.8 -54.8 3
      vertex -34.5 -54.8 3
      vertex -31.8 -54.8 0
    endloop
  endfacet
  facet normal -1 0 0
    outer loop
      vertex -31.8 -58.2 0
      vertex -31.8 -58.2 3
      vertex -31.8 -54.8 0
    endloop
  endfacet
  facet normal -1 0 0
    outer loop
      vertex -31.8 -54.8 0
      vertex -31.8 -58.2 3
      vertex -31.8 -54.8 3
    endloop
  endfacet
  facet normal 0 -1 0
    outer loop
      vertex -18.6 -55 3
      vertex -18.6 -55 0
      vertex -7.1 -55 0
    endloop
  endfacet
  facet normal 0 -1 0
    outer loop
      vertex -7.1 -55 3
      vertex -18.6 -55 3
      vertex -7.1 -55 0
    endloop
  endfacet
  facet normal 1 0 0
    outer loop
      vertex -18.6 -58.2 3
      vertex -18.6 -58.2 0
      vertex -18.6 -55 0
    endloop
  endfacet
  facet normal 1 0 0
    outer loop
      vertex -18.6 -55 3
      vertex -18.6 -58.2 3
      vertex -18.6 -55 0
    endloop
  endfacet
  facet normal -1 0 0
    outer loop
      vertex -7.1 -58.2 0
      vertex -7.1 -58.2 3
      vertex -7.1 -55 0
    endloop
  endfacet
  facet normal -1 0 0
    outer loop
      vertex -7.1 -55 0
      vertex -7.1 -58.2 3
      vertex -7.1 -55 3
    endloop
  endfacet
  facet normal 0 1 0
    outer loop
      vertex -18.6 -58.2 0
      vertex -18.6 -58.2 3
      vertex -7.1 -58.2 0
    endloop
  endfacet
  facet normal 0 1 0
    outer loop
      vertex -7.1 -58.2 0
      vertex -18.6 -58.2 3
      vertex -7.1 -58.2 3
    endloop
  endfacet
  facet normal 1 0 0
    outer loop
      vertex -18.6 58.1 0
      vertex -18.6 58.1 3
      vertex -18.6 54.9 3
    endloop
  endfacet
  facet normal 1 0 0
    outer loop
      vertex -18.6 54.9 0
      vertex -18.6 58.1 0
      vertex -18.6 54.9 3
    endloop
  endfacet
  facet normal 0 -1 0
    outer loop
      vertex -7.1 58.1 0
      vertex -7.1 58.1 3
      vertex -18.6 58.1 3
    endloop
  endfacet
  facet normal 0 -1 0
    outer loop
      vertex -18.6 58.1 0
      vertex -7.1 58.1 0
      vertex -18.6 58.1 3
    endloop
  endfacet
  facet normal -1 0 0
    outer loop
      vertex -7.1 58.1 3
      vertex -7.1 58.1 0
      vertex -7.1 54.9 3
    endloop
  endfacet
  facet normal -1 0 0
    outer loop
      vertex -7.1 54.9 3
      vertex -7.1 58.1 0
      vertex -7.1 54.9 0
    endloop
  endfacet
  facet normal 0 1 0
    outer loop
      vertex -7.1 54.9 3
      vertex -7.1 54.9 0
      vertex -18.6 54.9 3
    endloop
  endfacet
  facet normal 0 1 0
    outer loop
      vertex -18.6 54.9 3
      vertex -7.1 54.9 0
      vertex -18.6 54.9 0
    endloop
  endfacet
  facet normal 1 0 0
    outer loop
      vertex 7.2 -55 0
      vertex 7.2 -55 3
      vertex 7.2 -58.2 3
    endloop
  endfacet
  facet normal 1 0 0
    outer loop
      vertex 7.2 -58.2 0
      vertex 7.2 -55 0
      vertex 7.2 -58.2 3
    endloop
  endfacet
  facet normal 0 -1 0
    outer loop
      vertex 18.7 -55 0
      vertex 18.7 -55 3
      vertex 7.2 -55 3
    endloop
  endfacet
  facet normal 0 -1 0
    outer loop
      vertex 7.2 -55 0
      vertex 18.7 -55 0
      vertex 7.2 -55 3
    endloop
  endfacet
  facet normal -1 0 0
    outer loop
      vertex 18.7 -55 3
      vertex 18.7 -55 0
      vertex 18.7 -58.2 3
    endloop
  endfacet
  facet normal -1 0 0
    outer loop
      vertex 18.7 -58.2 3
      vertex 18.7 -55 0
      vertex 18.7 -58.2 0
    endloop
  endfacet
  facet normal 0 1 0
    outer loop
      vertex 18.7 -58.2 3
      vertex 18.7 -58.2 0
      vertex 7.2 -58.2 3
    endloop
  endfacet
  facet normal 0 1 0
    outer loop
      vertex 7.2 -58.2 3
      vertex 18.7 -58.2 0
      vertex 7.2 -58.2 0
    endloop
  endfacet
  facet normal 1 0 0
    outer loop
      vertex 7.2 54.9 3
      vertex 7.2 54.9 0
      vertex 7.2 58.1 0
    endloop
  endfacet
  facet normal 1 0 0
    outer loop
      vertex 7.2 58.1 3
      vertex 7.2 54.9 3
      vertex 7.2 58.1 0
    endloop
  endfacet
  facet normal 0 -1 0
    outer loop
      vertex 7.2 58.1 3
      vertex 7.2 58.1 0
      vertex 18.7 58.1 0
    endloop
  endfacet
  facet normal 0 -1 0
    outer loop
      vertex 18.7 58.1 3
      vertex 7.2 58.1 3
      vertex 18.7 58.1 0
    endloop
  endfacet
  facet normal -1 0 0
    outer loop
      vertex 18.7 54.9 0
      vertex 18.7 54.9 3
      vertex 18.7 58.1 0
    endloop
  endfacet
  facet normal -1 0 0
    outer loop
      vertex 18.7 58.1 0
      vertex 18.7 54.9 3
      vertex 18.7 58.1 3
    endloop
  endfacet
  facet normal 0 1 0
    outer loop
      vertex 7.2 54.9 0
      vertex 7.2 54.9 3
      vertex 18.7 54.9 0
    endloop
  endfacet
  facet normal 0 1 0
    outer loop
      vertex 18.7 54.9 0
      vertex 7.2 54.9 3
      vertex 18.7 54.9 3
    endloop
  endfacet
endsolid OpenSCAD_Model
